<svg width="402pt" height="234pt" viewBox="0 0 402 234" xmlns="http://www.w3.org/2000/svg" xmlns:xlink="http://www.w3.org/1999/xlink">
<g id="graph0" class="graph" transform="scale(1 1) rotate(0) translate(4 229.8)">
<title>G</title>
<polygon fill="#ffffff" stroke="transparent" points="-4,4 -4,-229.8 397.8205,-229.8 397.8205,4 -4,4"></polygon>
<!-- 1 -->
<g id="node1" class="node">
<title>1</title>
<polygon fill="none" stroke="#000000" points="215.0782,-226.0014 128.5628,-226.0014 128.5628,-167.1986 215.0782,-167.1986 215.0782,-226.0014"></polygon>
<text text-anchor="middle" x="171.8205" y="-209.2" font-family="Times,serif" font-size="14.00" fill="#000000">scan; </text>
<text text-anchor="middle" x="171.8205" y="-192.4" font-family="Times,serif" font-size="14.00" fill="#000000"> Empile(w); </text>
<text text-anchor="middle" x="171.8205" y="-175.6" font-family="Times,serif" font-size="14.00" fill="#000000"> scan;</text>
</g>
<!-- 2 -->
<g id="node2" class="node">
<title>2</title>
<ellipse fill="none" stroke="#000000" cx="171.8205" cy="-112.4" rx="78.7279" ry="18"></ellipse>
<text text-anchor="middle" x="171.8205" y="-108.2" font-family="Times,serif" font-size="14.00" fill="#000000">table[sommet, w]</text>
</g>
<!-- 1&#45;&gt;2 -->
<g id="edge1" class="edge">
<title>1-&gt;2</title>
<path fill="none" stroke="#000000" d="M171.8205,-167.1509C171.8205,-158.6147 171.8205,-149.3135 171.8205,-140.8402"></path>
<polygon fill="#000000" stroke="#000000" points="175.3206,-140.6701 171.8205,-130.6701 168.3206,-140.6702 175.3206,-140.6701"></polygon>
</g>
<!-- 3 -->
<g id="node3" class="node">
<title>3</title>
<polygon fill="none" stroke="#000000" points="55.4627,-38.8 .1783,-38.8 .1783,-2.8 55.4627,-2.8 55.4627,-38.8"></polygon>
<text text-anchor="middle" x="27.8205" y="-16.6" font-family="Times,serif" font-size="14.00" fill="#000000">Accept</text>
</g>
<!-- 2&#45;&gt;3 -->
<g id="edge2" class="edge">
<title>2-&gt;3</title>
<path fill="none" stroke="#000000" d="M140.8736,-95.7699C130.2663,-89.8657 118.4064,-83.035 107.8205,-76.4 92.1544,-66.5809 75.2808,-55.0097 61.0873,-44.9731"></path>
<polygon fill="#000000" stroke="#000000" points="62.8069,-41.901 52.6309,-38.9516 58.7466,-47.6031 62.8069,-41.901"></polygon>
</g>
<!-- 4 -->
<g id="node4" class="node">
<title>4</title>
<polygon fill="none" stroke="#000000" points="156.5783,-41.4019 73.0627,-41.4019 73.0627,-.1981 156.5783,-.1981 156.5783,-41.4019"></polygon>
<text text-anchor="middle" x="114.8205" y="-25" font-family="Times,serif" font-size="14.00" fill="#000000">Empile(w); </text>
<text text-anchor="middle" x="114.8205" y="-8.2" font-family="Times,serif" font-size="14.00" fill="#000000"> scan;</text>
</g>
<!-- 2&#45;&gt;4 -->
<g id="edge5" class="edge">
<title>2-&gt;4</title>
<path fill="none" stroke="#cb5404" d="M136.3053,-96.1988C128.6352,-90.9924 121.4735,-84.4372 116.9341,-76.4 112.7462,-68.9853 111.192,-60.0839 110.9541,-51.5991"></path>
<polygon fill="#cb5404" stroke="#cb5404" points="114.4532,-51.6761 111.2284,-41.584 107.4559,-51.4845 114.4532,-51.6761"></polygon>
<text text-anchor="start" x="117.8205" y="-63.8" font-family="Times,serif" font-size="14.00" fill="#cb5404">shift</text>
</g>
<!-- 5 -->
<g id="node5" class="node">
<title>5</title>
<polygon fill="none" stroke="#000000" points="321.3241,-41.4019 174.3169,-41.4019 174.3169,-.1981 321.3241,-.1981 321.3241,-41.4019"></polygon>
<text text-anchor="middle" x="247.8205" y="-25" font-family="Times,serif" font-size="14.00" fill="#000000">Remplace partie droite </text>
<text text-anchor="middle" x="247.8205" y="-8.2" font-family="Times,serif" font-size="14.00" fill="#000000"> par partie gauche</text>
</g>
<!-- 2&#45;&gt;5 -->
<g id="edge4" class="edge">
<title>2-&gt;5</title>
<path fill="none" stroke="#088446" d="M176.1766,-93.9311C179.3919,-83.1204 184.6052,-69.6619 192.5161,-59.6 195.8689,-55.3357 199.8153,-51.3457 204.0314,-47.6702"></path>
<polygon fill="#088446" stroke="#088446" points="206.2331,-50.3911 211.8418,-41.4026 201.8519,-44.9316 206.2331,-50.3911"></polygon>
<text text-anchor="start" x="192.8205" y="-63.8" font-family="Times,serif" font-size="14.00" fill="#088446">reduce</text>
</g>
<!-- 6 -->
<g id="node6" class="node">
<title>6</title>
<polygon fill="none" stroke="#000000" points="393.8205,-38.8 339.8205,-38.8 339.8205,-2.8 393.8205,-2.8 393.8205,-38.8"></polygon>
<text text-anchor="middle" x="366.8205" y="-16.6" font-family="Times,serif" font-size="14.00" fill="#000000">Erreur</text>
</g>
<!-- 2&#45;&gt;6 -->
<g id="edge3" class="edge">
<title>2-&gt;6</title>
<path fill="none" stroke="#000000" d="M210.2562,-96.6244C240.7576,-83.8085 284.5418,-64.7532 330.2936,-41.67"></path>
<polygon fill="#000000" stroke="#000000" points="332.1429,-44.6561 339.4669,-37.0003 328.9673,-38.4178 332.1429,-44.6561"></polygon>
</g>
<!-- 4&#45;&gt;2 -->
<g id="edge6" class="edge">
<title>4-&gt;2</title>
<path fill="none" stroke="#000000" d="M129.7486,-41.5066C133.776,-47.2912 138.0577,-53.6291 141.8205,-59.6 146.9664,-67.7656 152.2683,-76.8432 156.9566,-85.1363"></path>
<polygon fill="#000000" stroke="#000000" points="154.017,-87.0509 161.9481,-94.0757 160.1288,-83.6383 154.017,-87.0509"></polygon>
</g>
<!-- 5&#45;&gt;2 -->
<g id="edge7" class="edge">
<title>5-&gt;2</title>
<path fill="none" stroke="#000000" d="M244.706,-41.464C242.1845,-52.7074 237.7009,-66.3337 229.8205,-76.4 225.7933,-81.5442 220.8112,-86.1423 215.472,-90.1908"></path>
<polygon fill="#000000" stroke="#000000" points="213.1329,-87.5515 206.8741,-96.1 217.0978,-93.3204 213.1329,-87.5515"></polygon>
</g>
</g>
</svg>