<?xml version="1.0" encoding="UTF-8" standalone="no"?>
<!DOCTYPE svg PUBLIC "-//W3C//DTD SVG 1.1//EN"
 "http://www.w3.org/Graphics/SVG/1.1/DTD/svg11.dtd">
<!-- Generated by graphviz version 2.40.1 (20161225.0304)
 -->
<!-- Title: G Pages: 1 -->
<svg width="479pt" height="223pt"
 viewBox="0.00 0.00 479.00 223.00" xmlns="http://www.w3.org/2000/svg" xmlns:xlink="http://www.w3.org/1999/xlink">
<g id="graph0" class="graph" transform="scale(1 1) rotate(0) translate(4 219)">
<title>G</title>
<polygon fill="#ffffff" stroke="transparent" points="-4,4 -4,-219 475,-219 475,4 -4,4"/>
<!-- 1 -->
<g id="node1" class="node">
<title>1</title>
<polygon fill="none" stroke="#000000" points="252,-215 149,-215 149,-162 252,-162 252,-215"/>
<text text-anchor="middle" x="200.5" y="-199.8" font-family="Times,serif" font-size="14.00" fill="#000000">scan; </text>
<text text-anchor="middle" x="200.5" y="-184.8" font-family="Times,serif" font-size="14.00" fill="#000000"> Empile(w); </text>
<text text-anchor="middle" x="200.5" y="-169.8" font-family="Times,serif" font-size="14.00" fill="#000000"> scan;</text>
</g>
<!-- 2 -->
<g id="node2" class="node">
<title>2</title>
<ellipse fill="none" stroke="#000000" cx="200.5" cy="-107" rx="91.784" ry="18"/>
<text text-anchor="middle" x="200.5" y="-103.3" font-family="Times,serif" font-size="14.00" fill="#000000">table[sommet, w]</text>
</g>
<!-- 1&#45;&gt;2 -->
<g id="edge1" class="edge">
<title>1&#45;&gt;2</title>
<path fill="none" stroke="#000000" d="M200.5,-161.8139C200.5,-153.4576 200.5,-144.2021 200.5,-135.7124"/>
<polygon fill="#000000" stroke="#000000" points="204.0001,-135.4936 200.5,-125.4936 197.0001,-135.4936 204.0001,-135.4936"/>
</g>
<!-- 3 -->
<g id="node3" class="node">
<title>3</title>
<polygon fill="none" stroke="#000000" points="67,-37 0,-37 0,-1 67,-1 67,-37"/>
<text text-anchor="middle" x="33.5" y="-15.3" font-family="Times,serif" font-size="14.00" fill="#000000">Accept</text>
</g>
<!-- 2&#45;&gt;3 -->
<g id="edge2" class="edge">
<title>2&#45;&gt;3</title>
<path fill="none" stroke="#000000" d="M166.306,-90.2274C154.3027,-84.254 140.7579,-77.4164 128.5,-71 110.7905,-61.7299 91.4062,-51.1913 74.7923,-42.0365"/>
<polygon fill="#000000" stroke="#000000" points="76.3211,-38.8825 65.8756,-37.1097 72.9357,-45.0094 76.3211,-38.8825"/>
</g>
<!-- 4 -->
<g id="node4" class="node">
<title>4</title>
<polygon fill="none" stroke="#000000" points="183.5,-38 85.5,-38 85.5,0 183.5,0 183.5,-38"/>
<text text-anchor="middle" x="134.5" y="-22.8" font-family="Times,serif" font-size="14.00" fill="#000000">Empile(w); </text>
<text text-anchor="middle" x="134.5" y="-7.8" font-family="Times,serif" font-size="14.00" fill="#000000"> scan;</text>
</g>
<!-- 2&#45;&gt;4 -->
<g id="edge5" class="edge">
<title>2&#45;&gt;4</title>
<path fill="none" stroke="#cb5404" d="M158.6625,-90.9057C150.3432,-85.7881 142.6083,-79.2458 137.5,-71 133.3278,-64.2653 131.6599,-56.0501 131.2709,-48.1564"/>
<polygon fill="#cb5404" stroke="#cb5404" points="134.771,-48.158 131.3931,-38.1161 127.7716,-48.0728 134.771,-48.158"/>
<text text-anchor="start" x="137.5" y="-59.8" font-family="Times,serif" font-size="14.00" fill="#cb5404">shift</text>
</g>
<!-- 5 -->
<g id="node5" class="node">
<title>5</title>
<polygon fill="none" stroke="#000000" points="387.5,-38 201.5,-38 201.5,0 387.5,0 387.5,-38"/>
<text text-anchor="middle" x="294.5" y="-22.8" font-family="Times,serif" font-size="14.00" fill="#000000">Remplace partie droite </text>
<text text-anchor="middle" x="294.5" y="-7.8" font-family="Times,serif" font-size="14.00" fill="#000000"> par partie gauche</text>
</g>
<!-- 2&#45;&gt;5 -->
<g id="edge4" class="edge">
<title>2&#45;&gt;5</title>
<path fill="none" stroke="#088446" d="M205.4284,-88.7678C209.0328,-78.1863 214.8284,-65.1782 223.5,-56 227.8851,-51.3587 232.9827,-47.1918 238.3958,-43.4783"/>
<polygon fill="#088446" stroke="#088446" points="240.4948,-46.2932 247.1048,-38.0132 236.774,-40.364 240.4948,-46.2932"/>
<text text-anchor="start" x="223.5" y="-59.8" font-family="Times,serif" font-size="14.00" fill="#088446">reduce</text>
</g>
<!-- 6 -->
<g id="node6" class="node">
<title>6</title>
<polygon fill="none" stroke="#000000" points="471,-37 406,-37 406,-1 471,-1 471,-37"/>
<text text-anchor="middle" x="438.5" y="-15.3" font-family="Times,serif" font-size="14.00" fill="#000000">Erreur</text>
</g>
<!-- 2&#45;&gt;6 -->
<g id="edge3" class="edge">
<title>2&#45;&gt;6</title>
<path fill="none" stroke="#000000" d="M248.0538,-91.5403C285.9052,-78.9462 340.3369,-60.1945 396.2513,-37.9533"/>
<polygon fill="#000000" stroke="#000000" points="397.6202,-41.1754 405.6008,-34.2068 395.0164,-34.6777 397.6202,-41.1754"/>
</g>
<!-- 4&#45;&gt;2 -->
<g id="edge6" class="edge">
<title>4&#45;&gt;2</title>
<path fill="none" stroke="#000000" d="M154.8566,-38.1718C160.2281,-43.6857 165.8249,-49.872 170.5,-56 176.1427,-63.3963 181.5475,-71.942 186.1765,-79.8983"/>
<polygon fill="#000000" stroke="#000000" points="183.2672,-81.8653 191.2219,-88.8633 189.3675,-78.4321 183.2672,-81.8653"/>
</g>
<!-- 5&#45;&gt;2 -->
<g id="edge7" class="edge">
<title>5&#45;&gt;2</title>
<path fill="none" stroke="#000000" d="M290.359,-38.1498C287.2286,-48.8665 281.9786,-61.8665 273.5,-71 268.0246,-76.8983 261.3724,-81.954 254.3379,-86.2501"/>
<polygon fill="#000000" stroke="#000000" points="252.3175,-83.369 245.2831,-91.2917 255.7227,-89.4849 252.3175,-83.369"/>
</g>
</g>
</svg>
