<?xml version="1.0" encoding="UTF-8" standalone="no"?>
<!DOCTYPE svg PUBLIC "-//W3C//DTD SVG 1.1//EN"
 "http://www.w3.org/Graphics/SVG/1.1/DTD/svg11.dtd">
<!-- Generated by graphviz version 2.40.1 (20161225.0304)
 -->
<!-- Title: G Pages: 1 -->
<svg width="331pt" height="568pt"
 viewBox="0.00 0.00 331.00 568.00" xmlns="http://www.w3.org/2000/svg" xmlns:xlink="http://www.w3.org/1999/xlink">
<g id="graph0" class="graph" transform="scale(1 1) rotate(0) translate(4 564)">
<title>G</title>
<polygon fill="#ffffff" stroke="transparent" points="-4,4 -4,-564 327,-564 327,4 -4,4"/>
<!-- 0 -->
<g id="node1" class="node">
<title>0</title>
<text text-anchor="start" x="35.5" y="-537.3" font-family="Times,serif" font-size="14.00" fill="#000000">S</text>
<text text-anchor="start" x="45.5" y="-537.3" font-family="Times,serif" baseline-shift="sub" font-size="14.00" fill="#000000">0</text>
</g>
<!-- 1 -->
<g id="node4" class="node">
<title>1</title>
<text text-anchor="middle" x="44.5" y="-462.3" font-family="Times,serif" font-size="14.00" fill="#000000">N</text>
</g>
<!-- 0&#45;&gt;1 -->
<g id="edge1" class="edge">
<title>0&#45;&gt;1</title>
<path fill="none" stroke="#000000" d="M44.5,-521.7079C44.5,-510.2375 44.5,-495.512 44.5,-484.0817"/>
</g>
<!-- 00 -->
<g id="node2" class="node">
<title>00</title>
<text text-anchor="start" x="110" y="-536.3" font-family="Times,serif" font-size="14.00" fill="#000000">⇒</text>
</g>
<!-- 000 -->
<g id="node3" class="node">
<title>000</title>
<text text-anchor="start" x="170" y="-545.8" font-family="Times,serif" font-size="14.00" fill="#000000">&quot;[&#39;a&#39;].&#39;b&#39;,;&quot; </text>
<text text-anchor="start" x="184.5" y="-528.6" font-family="Times,serif" font-size="14.00" fill="#000000"> &#160;&#160;&#160;</text>
<text text-anchor="start" x="203.5" y="-528.6" font-family="Times,serif" font-size="18.00" fill="#ff0000">#1</text>
</g>
<!-- 2 -->
<g id="node5" class="node">
<title>2</title>
<text text-anchor="middle" x="207.5" y="-462.3" font-family="Times,serif" font-size="14.00" fill="#000000">E</text>
</g>
<!-- 000&#45;&gt;2 -->
<g id="edge2" class="edge">
<title>000&#45;&gt;2</title>
<path fill="none" stroke="#000000" d="M207.5,-519.7792C207.5,-508.653 207.5,-494.9586 207.5,-484.1735"/>
</g>
<!-- 3 -->
<g id="node6" class="node">
<title>3</title>
<text text-anchor="start" x="8" y="-397.8" font-family="Times,serif" font-size="14.00" fill="#000000"> &#39;IDNTER&#39;</text>
<text text-anchor="start" x="21.5" y="-380.6" font-family="Times,serif" font-size="14.00" fill="#000000"> &#160;&#160;&#160;</text>
<text text-anchor="start" x="40.5" y="-380.6" font-family="Times,serif" font-size="18.00" fill="#ff0000">#2</text>
</g>
<!-- 1&#45;&gt;3 -->
<g id="edge3" class="edge">
<title>1&#45;&gt;3</title>
<path fill="none" stroke="#000000" d="M44.5,-447.7079C44.5,-440.04 44.5,-430.9175 44.5,-422.2971"/>
<polygon fill="#000000" stroke="#000000" points="48.0001,-422.1627 44.5,-412.1628 41.0001,-422.1628 48.0001,-422.1627"/>
</g>
<!-- 4 -->
<g id="node7" class="node">
<title>4</title>
<text text-anchor="middle" x="207.5" y="-388.3" font-family="Times,serif" font-size="14.00" fill="#000000">T</text>
</g>
<!-- 2&#45;&gt;4 -->
<g id="edge4" class="edge">
<title>2&#45;&gt;4</title>
<path fill="none" stroke="#000000" d="M207.5,-447.7079C207.5,-439.4635 207.5,-429.5376 207.5,-420.3622"/>
<polygon fill="#000000" stroke="#000000" points="211.0001,-420.0817 207.5,-410.0817 204.0001,-420.0818 211.0001,-420.0817"/>
</g>
<!-- 5 -->
<g id="node8" class="node">
<title>5</title>
<text text-anchor="middle" x="132.5" y="-312.3" font-family="Times,serif" font-size="14.00" fill="#000000">F</text>
</g>
<!-- 4&#45;&gt;5 -->
<g id="edge5" class="edge">
<title>4&#45;&gt;5</title>
<path fill="none" stroke="#000000" d="M189.726,-373.9891C180.0825,-364.2169 168.0059,-351.9793 157.4353,-341.2678"/>
<polygon fill="#000000" stroke="#000000" points="159.9216,-338.8044 150.4063,-334.145 154.9392,-343.7212 159.9216,-338.8044"/>
</g>
<!-- 6 -->
<g id="node9" class="node">
<title>6</title>
<text text-anchor="middle" x="207.5" y="-312.3" font-family="Times,serif" font-size="14.00" fill="#000000">&#39;.&#39;</text>
</g>
<!-- 4&#45;&gt;6 -->
<g id="edge6" class="edge">
<title>4&#45;&gt;6</title>
<path fill="none" stroke="#000000" d="M207.5,-373.9891C207.5,-365.1566 207.5,-354.3099 207.5,-344.3965"/>
<polygon fill="#000000" stroke="#000000" points="211.0001,-344.145 207.5,-334.145 204.0001,-344.1451 211.0001,-344.145"/>
</g>
<!-- 7 -->
<g id="node10" class="node">
<title>7</title>
<text text-anchor="start" x="271.5" y="-321.8" font-family="Times,serif" font-size="14.00" fill="#000000">&quot;F&quot; </text>
<text text-anchor="start" x="262.5" y="-304.6" font-family="Times,serif" font-size="14.00" fill="#000000"> &#160;&#160;&#160;</text>
<text text-anchor="start" x="281.5" y="-304.6" font-family="Times,serif" font-size="18.00" fill="#ff0000">#4</text>
</g>
<!-- 4&#45;&gt;7 -->
<g id="edge7" class="edge">
<title>4&#45;&gt;7</title>
<path fill="none" stroke="#000000" d="M225.9849,-373.9891C235.4102,-364.8054 247.0704,-353.4443 257.5651,-343.2187"/>
<polygon fill="#000000" stroke="#000000" points="260.2324,-345.5064 264.9522,-336.0209 255.3474,-340.4928 260.2324,-345.5064"/>
</g>
<!-- 8 -->
<g id="node11" class="node">
<title>8</title>
<text text-anchor="middle" x="54.5" y="-236.3" font-family="Times,serif" font-size="14.00" fill="#000000">[</text>
</g>
<!-- 5&#45;&gt;8 -->
<g id="edge8" class="edge">
<title>5&#45;&gt;8</title>
<path fill="none" stroke="#000000" d="M114.0151,-297.9891C103.9858,-288.2169 91.4261,-275.9793 80.4328,-265.2678"/>
<polygon fill="#000000" stroke="#000000" points="82.7274,-262.6169 73.1225,-258.145 77.8423,-267.6305 82.7274,-262.6169"/>
</g>
<!-- 9 -->
<g id="node12" class="node">
<title>9</title>
<text text-anchor="middle" x="126.5" y="-236.3" font-family="Times,serif" font-size="14.00" fill="#000000">E</text>
</g>
<!-- 5&#45;&gt;9 -->
<g id="edge9" class="edge">
<title>5&#45;&gt;9</title>
<path fill="none" stroke="#000000" d="M131.0781,-297.9891C130.3808,-289.1566 129.5245,-278.3099 128.7418,-268.3965"/>
<polygon fill="#000000" stroke="#000000" points="132.2088,-267.8385 127.9325,-258.145 125.2305,-268.3895 132.2088,-267.8385"/>
</g>
<!-- 10 -->
<g id="node13" class="node">
<title>10</title>
<text text-anchor="start" x="190.5" y="-245.8" font-family="Times,serif" font-size="14.00" fill="#000000">&quot;]&quot; </text>
<text text-anchor="start" x="179.5" y="-228.6" font-family="Times,serif" font-size="14.00" fill="#000000"> &#160;&#160;&#160;</text>
<text text-anchor="start" x="198.5" y="-228.6" font-family="Times,serif" font-size="18.00" fill="#ff0000">#6</text>
</g>
<!-- 5&#45;&gt;10 -->
<g id="edge10" class="edge">
<title>5&#45;&gt;10</title>
<path fill="none" stroke="#000000" d="M149.089,-297.9891C157.4655,-288.8946 167.8089,-277.6647 177.1556,-267.5168"/>
<polygon fill="#000000" stroke="#000000" points="179.8593,-269.7476 184.0597,-260.0209 174.7105,-265.0052 179.8593,-269.7476"/>
</g>
<!-- 14 -->
<g id="node17" class="node">
<title>14</title>
<text text-anchor="start" x="260" y="-245.8" font-family="Times,serif" font-size="14.00" fill="#000000">&quot;Elter&quot; </text>
<text text-anchor="start" x="264.5" y="-228.6" font-family="Times,serif" font-size="14.00" fill="#000000"> &#160;&#160;&#160;</text>
<text text-anchor="start" x="283.5" y="-228.6" font-family="Times,serif" font-size="18.00" fill="#ff0000">#5</text>
</g>
<!-- 7&#45;&gt;14 -->
<g id="edge14" class="edge">
<title>7&#45;&gt;14</title>
<path fill="none" stroke="#000000" d="M286.036,-295.6334C286.2416,-287.8186 286.4809,-278.7253 286.7057,-270.183"/>
<polygon fill="#000000" stroke="#000000" points="290.2051,-270.2479 286.9695,-260.1593 283.2075,-270.0637 290.2051,-270.2479"/>
</g>
<!-- 11 -->
<g id="node14" class="node">
<title>11</title>
<text text-anchor="middle" x="126.5" y="-162.3" font-family="Times,serif" font-size="14.00" fill="#000000">F</text>
</g>
<!-- 9&#45;&gt;11 -->
<g id="edge11" class="edge">
<title>9&#45;&gt;11</title>
<path fill="none" stroke="#000000" d="M126.5,-221.7079C126.5,-213.4635 126.5,-203.5376 126.5,-194.3622"/>
<polygon fill="#000000" stroke="#000000" points="130.0001,-194.0817 126.5,-184.0817 123.0001,-194.0818 130.0001,-194.0817"/>
</g>
<!-- 12 -->
<g id="node15" class="node">
<title>12</title>
<text text-anchor="start" x="99" y="-97.8" font-family="Times,serif" font-size="14.00" fill="#000000">&quot;Elter&quot; </text>
<text text-anchor="start" x="103.5" y="-80.6" font-family="Times,serif" font-size="14.00" fill="#000000"> &#160;&#160;&#160;</text>
<text text-anchor="start" x="122.5" y="-80.6" font-family="Times,serif" font-size="18.00" fill="#ff0000">#5</text>
</g>
<!-- 11&#45;&gt;12 -->
<g id="edge12" class="edge">
<title>11&#45;&gt;12</title>
<path fill="none" stroke="#000000" d="M126.5,-147.7079C126.5,-140.04 126.5,-130.9175 126.5,-122.2971"/>
<polygon fill="#000000" stroke="#000000" points="130.0001,-122.1627 126.5,-112.1628 123.0001,-122.1628 130.0001,-122.1627"/>
</g>
<!-- 13 -->
<g id="node16" class="node">
<title>13</title>
<text text-anchor="middle" x="126.5" y="-14.3" font-family="Times,serif" font-size="14.00" fill="#000000">&#39;a&#39;</text>
</g>
<!-- 12&#45;&gt;13 -->
<g id="edge13" class="edge">
<title>12&#45;&gt;13</title>
<path fill="none" stroke="#000000" d="M126.5,-71.7792C126.5,-63.9561 126.5,-54.8633 126.5,-46.4049"/>
<polygon fill="#000000" stroke="#000000" points="130.0001,-46.1735 126.5,-36.1735 123.0001,-46.1735 130.0001,-46.1735"/>
</g>
<!-- 15 -->
<g id="node18" class="node">
<title>15</title>
<text text-anchor="middle" x="287.5" y="-162.3" font-family="Times,serif" font-size="14.00" fill="#000000">&#39;b&#39;</text>
</g>
<!-- 14&#45;&gt;15 -->
<g id="edge15" class="edge">
<title>14&#45;&gt;15</title>
<path fill="none" stroke="#000000" d="M287.5,-219.7792C287.5,-211.9561 287.5,-202.8633 287.5,-194.4049"/>
<polygon fill="#000000" stroke="#000000" points="291.0001,-194.1735 287.5,-184.1735 284.0001,-194.1735 291.0001,-194.1735"/>
</g>
</g>
</svg>
