<svg width="223pt" height="130pt" viewBox="0 0 223 130" xmlns="http://www.w3.org/2000/svg" xmlns:xlink="http://www.w3.org/1999/xlink">
<g id="graph0" class="graph" transform="scale(1 1) rotate(0) translate(4 126.4)">
<title>G</title>
<polygon fill="#ffffff" stroke="transparent" points="-4,4 -4,-126.4 218.9748,-126.4 218.9748,4 -4,4"></polygon>
<!-- node0 -->
<g id="node1" class="node">
<title>node0</title>
<polygon fill="none" stroke="#000000" points="0,-22.7 0,-121.9 54,-121.9 54,-22.7 0,-22.7"></polygon>
<text text-anchor="middle" x="27" y="-105.3" font-family="Times,serif" font-size="14.00" fill="#000000">...</text>
<polyline fill="none" stroke="#000000" points="0,-97.1 54,-97.1 "></polyline>
<text text-anchor="middle" x="27" y="-80.5" font-family="Times,serif" font-size="14.00" fill="#000000">...</text>
<polyline fill="none" stroke="#000000" points="0,-72.3 54,-72.3 "></polyline>
<text text-anchor="middle" x="27" y="-55.7" font-family="Times,serif" font-size="14.00" fill="#ff0000">#5</text>
<polyline fill="none" stroke="#000000" points="0,-47.5 54,-47.5 "></polyline>
<text text-anchor="middle" x="27" y="-30.9" font-family="Times,serif" font-size="14.00" fill="#ff0000">#2</text>
</g>
<!-- node1 -->
<g id="node2" class="node">
<title>node1</title>
<polygon fill="none" stroke="#000000" points="90,-17.3 90,-53.3 214.9748,-53.3 214.9748,-17.3 90,-17.3"></polygon>
<text text-anchor="middle" x="123.6578" y="-31.2" font-family="Times,serif" font-size="14.00" fill="#000000">IDNTER</text>
<polyline fill="none" stroke="#000000" points="157.3156,-17.5 157.3156,-53.3 "></polyline>
<text text-anchor="middle" x="168.8156" y="-31.2" font-family="Times,serif" font-size="14.00" fill="#000000">2</text>
<polyline fill="none" stroke="#000000" points="180.3156,-17.5 180.3156,-53.3 "></polyline>
<text text-anchor="middle" x="197.6452" y="-31.2" font-family="Times,serif" font-size="14.00" fill="#000000">NT</text>
<text text-anchor="start" x="75.2174" y="-5.2" font-family="Times,serif" font-size="14.00" fill="#000000">S</text>
<text text-anchor="start" x="83" y="-5.2" font-family="Times,serif" baseline-shift="sub" font-size="14.00" fill="#000000">0</text>
</g>
<!-- node0&#45;&gt;node1 -->
<g id="edge1" class="edge">
<title>node0:f0-&gt;node1</title>
<path fill="none" stroke="#000000" d="M54,-35.3C62.3569,-35.3 71.1127,-35.3 79.8104,-35.3"></path>
<polygon fill="#000000" stroke="#000000" points="79.9668,-38.8001 89.9667,-35.3 79.9667,-31.8001 79.9668,-38.8001"></polygon>
</g>
</g>
</svg>
