<svg width="535pt" height="145pt" viewBox="0 0 535 145" xmlns="http://www.w3.org/2000/svg" xmlns:xlink="http://www.w3.org/1999/xlink">
<g id="graph0" class="graph" transform="scale(1 1) rotate(0) translate(4 141)">
<title>G</title>
<polygon fill="#ffffff" stroke="transparent" points="-4,4 -4,-141 530.6782,-141 530.6782,4 -4,4"></polygon>
<g id="clust1" class="cluster">
<title>cluster_0</title>
<polygon fill="#ffffff" stroke="#ffffff" points="8,-27 8,-110 78,-110 78,-27 8,-27"></polygon>
<text text-anchor="start" x="34" y="-89.8" font-family="Times,serif" font-size="18.00" fill="#ff0000">#2</text>
</g>
<g id="clust2" class="cluster">
<title>cluster_1</title>
<polygon fill="#ffffff" stroke="#ffffff" points="98,-21 98,-117 168,-117 168,-21 98,-21"></polygon>
<text text-anchor="start" x="124" y="-96.8" font-family="Times,serif" font-size="18.00" fill="#ff0000">#5</text>
</g>
<g id="clust3" class="cluster">
<title>cluster_2</title>
<polygon fill="#ffffff" stroke="#ffffff" points="188,-21 188,-117 258,-117 258,-21 188,-21"></polygon>
<text text-anchor="start" x="214" y="-96.8" font-family="Times,serif" font-size="18.00" fill="#ff0000">#6</text>
</g>
<g id="clust4" class="cluster">
<title>cluster_3</title>
<polygon fill="#ffffff" stroke="#ffffff" points="278,-8 278,-129 348,-129 348,-8 278,-8"></polygon>
<text text-anchor="start" x="304" y="-108.8" font-family="Times,serif" font-size="18.00" fill="#ff0000">#5</text>
</g>
<g id="clust5" class="cluster">
<title>cluster_4</title>
<polygon fill="#ffffff" stroke="#ffffff" points="368,-21 368,-117 444.6782,-117 444.6782,-21 368,-21"></polygon>
<text text-anchor="start" x="397.3391" y="-96.8" font-family="Times,serif" font-size="18.00" fill="#ff0000">#4</text>
</g>
<!-- node0 -->
<g id="node1" class="node">
<title>node0</title>
<polygon fill="none" stroke="#000000" points="16,-36 16,-72 70,-72 70,-36 16,-36"></polygon>
<text text-anchor="start" x="35.6087" y="-50.9" font-family="Times,serif" font-size="14.00" fill="#000000">S</text>
<text text-anchor="start" x="43.3913" y="-50.9" font-family="Times,serif" baseline-shift="sub" font-size="14.00" fill="#000000">0</text>
</g>
<!-- node1 -->
<g id="node2" class="node">
<title>node1</title>
<polygon fill="none" stroke="#000000" points="106,-29.2 106,-78.8 160,-78.8 160,-29.2 106,-29.2"></polygon>
<text text-anchor="start" x="125.2321" y="-62.2" font-family="Times,serif" font-size="14.00" fill="#000000">'a'</text>
<polyline fill="none" stroke="#000000" points="106,-54 160,-54 "></polyline>
<text text-anchor="start" x="125.6087" y="-38.4" font-family="Times,serif" font-size="14.00" fill="#000000">S</text>
<text text-anchor="start" x="133.3913" y="-38.4" font-family="Times,serif" baseline-shift="sub" font-size="14.00" fill="#000000">0</text>
</g>
<!-- node0&#45;&gt;node1 -->
<g id="edge1" class="edge">
<title>node0-&gt;node1</title>
<path fill="none" stroke="#000000" d="M70.003,-54C78.0277,-54 86.9665,-54 95.5309,-54"></path>
<polygon fill="#000000" stroke="#000000" points="95.7051,-57.5001 105.705,-54 95.705,-50.5001 95.7051,-57.5001"></polygon>
</g>
<!-- node2 -->
<g id="node3" class="node">
<title>node2</title>
<polygon fill="none" stroke="#000000" points="196,-29.2 196,-78.8 250,-78.8 250,-29.2 196,-29.2"></polygon>
<text text-anchor="start" x="210.5715" y="-62.2" font-family="Times,serif" font-size="14.00" fill="#000000">['a']</text>
<polyline fill="none" stroke="#000000" points="196,-54 250,-54 "></polyline>
<text text-anchor="start" x="215.6087" y="-38.4" font-family="Times,serif" font-size="14.00" fill="#000000">S</text>
<text text-anchor="start" x="223.3913" y="-38.4" font-family="Times,serif" baseline-shift="sub" font-size="14.00" fill="#000000">0</text>
</g>
<!-- node1&#45;&gt;node2 -->
<g id="edge2" class="edge">
<title>node1-&gt;node2</title>
<path fill="none" stroke="#000000" d="M160.003,-54C168.0277,-54 176.9665,-54 185.5309,-54"></path>
<polygon fill="#000000" stroke="#000000" points="185.7051,-57.5001 195.705,-54 185.705,-50.5001 185.7051,-57.5001"></polygon>
</g>
<!-- node3 -->
<g id="node4" class="node">
<title>node3</title>
<polygon fill="none" stroke="#000000" points="286,-16.8 286,-91.2 340,-91.2 340,-16.8 286,-16.8"></polygon>
<text text-anchor="start" x="309.5" y="-74.6" font-family="Times,serif" font-size="14.00" fill="#000000">b</text>
<polyline fill="none" stroke="#000000" points="286,-66.4 340,-66.4 "></polyline>
<text text-anchor="start" x="300.5715" y="-49.8" font-family="Times,serif" font-size="14.00" fill="#000000">['a']</text>
<polyline fill="none" stroke="#000000" points="286,-41.6 340,-41.6 "></polyline>
<text text-anchor="start" x="305.6087" y="-26" font-family="Times,serif" font-size="14.00" fill="#000000">S</text>
<text text-anchor="start" x="313.3913" y="-26" font-family="Times,serif" baseline-shift="sub" font-size="14.00" fill="#000000">0</text>
</g>
<!-- node2&#45;&gt;node3 -->
<g id="edge3" class="edge">
<title>node2-&gt;node3</title>
<path fill="none" stroke="#000000" d="M250.003,-54C258.0277,-54 266.9665,-54 275.5309,-54"></path>
<polygon fill="#000000" stroke="#000000" points="275.7051,-57.5001 285.705,-54 275.705,-50.5001 275.7051,-57.5001"></polygon>
</g>
<!-- node4 -->
<g id="node5" class="node">
<title>node4</title>
<polygon fill="none" stroke="#000000" points="376,-29.2 376,-78.8 436.6782,-78.8 436.6782,-29.2 376,-29.2"></polygon>
<text text-anchor="start" x="384" y="-62.2" font-family="Times,serif" font-size="14.00" fill="#000000">['a'].'b'</text>
<polyline fill="none" stroke="#000000" points="376,-54 436.6782,-54 "></polyline>
<text text-anchor="start" x="398.9478" y="-38.4" font-family="Times,serif" font-size="14.00" fill="#000000">S</text>
<text text-anchor="start" x="406.7304" y="-38.4" font-family="Times,serif" baseline-shift="sub" font-size="14.00" fill="#000000">0</text>
</g>
<!-- node3&#45;&gt;node4 -->
<g id="edge4" class="edge">
<title>node3-&gt;node4</title>
<path fill="none" stroke="#000000" d="M340.5,-54C348.3755,-54 357.1325,-54 365.6223,-54"></path>
<polygon fill="#000000" stroke="#000000" points="365.7683,-57.5001 375.7683,-54 365.7683,-50.5001 365.7683,-57.5001"></polygon>
</g>
<!-- node5 -->
<g id="node6" class="node">
<title>node5</title>
<text text-anchor="start" x="490.6782" y="-48.6" font-family="Times,serif" font-size="18.00" fill="#ff0000">#1</text>
</g>
<!-- node4&#45;&gt;node5 -->
<g id="edge5" class="edge">
<title>node4-&gt;node5</title>
<path fill="none" stroke="#000000" d="M436.9018,-54C445.0663,-54 453.9804,-54 462.46,-54"></path>
<polygon fill="#000000" stroke="#000000" points="462.5083,-57.5001 472.5082,-54 462.5082,-50.5001 462.5083,-57.5001"></polygon>
</g>
</g>
</svg>