<svg width="1033pt" height="508pt" viewBox="0 0 1033 508" xmlns="http://www.w3.org/2000/svg" xmlns:xlink="http://www.w3.org/1999/xlink">
<g id="graph0" class="graph" transform="scale(1 1) rotate(0) translate(4 504)">
<title>G</title>
<polygon fill="#ffffff" stroke="transparent" points="-4,4 -4,-504 1029,-504 1029,4 -4,4"></polygon>
<g id="clust1" class="cluster">
<title>clusterA</title>
<polygon fill="none" stroke="#000000" points="187,-440 187,-492 455,-492 455,-440 187,-440"></polygon>
</g>
<g id="clust2" class="cluster">
<title>clusterS</title>
<polygon fill="none" stroke="#000000" points="8,-8 8,-420 150,-420 150,-8 8,-8"></polygon>
</g>
<g id="clust8" class="cluster">
<title>clusterN</title>
<polygon fill="none" stroke="#000000" points="158,-368 158,-420 242,-420 242,-368 158,-368"></polygon>
</g>
<g id="clust9" class="cluster">
<title>clusterE</title>
<polygon fill="none" stroke="#000000" points="250,-152 250,-420 392,-420 392,-152 250,-152"></polygon>
</g>
<g id="clust13" class="cluster">
<title>clusterT</title>
<polygon fill="none" stroke="#000000" points="400,-152 400,-420 542,-420 542,-152 400,-152"></polygon>
</g>
<g id="clust17" class="cluster">
<title>clusterf</title>
<polygon fill="none" stroke="#000000" points="550,-8 550,-420 1017,-420 1017,-8 550,-8"></polygon>
</g>
<!-- A -->
<g id="node1" class="node">
<title>A</title>
<polygon fill="none" stroke="#000000" points="150,-484 123,-466 150,-448 177,-466 150,-484"></polygon>
<polyline fill="none" stroke="#000000" points="132,-472 132,-460 "></polyline>
<polyline fill="none" stroke="#000000" points="141,-454 159,-454 "></polyline>
<polyline fill="none" stroke="#000000" points="168,-460 168,-472 "></polyline>
<polyline fill="none" stroke="#000000" points="159,-478 141,-478 "></polyline>
<text text-anchor="middle" x="150" y="-461.8" font-family="Times,serif" font-size="14.00" fill="#000000">A</text>
</g>
<!-- S -->
<g id="node2" class="node">
<title>S</title>
<polygon fill="none" stroke="#000000" points="231,-484 195,-484 195,-448 231,-448 231,-484"></polygon>
<text text-anchor="middle" x="213" y="-461.8" font-family="Times,serif" font-size="14.00" fill="#000000">S</text>
</g>
<!-- ls1 -->
<g id="node7" class="node">
<title>ls1</title>
<text text-anchor="middle" x="115" y="-389.8" font-family="Times,serif" font-size="14.00" fill="#000000">.</text>
</g>
<!-- S&#45;&gt;ls1 -->
<g id="edge40" class="edge">
<title>S-&gt;ls1</title>
<path fill="none" stroke="#000000" d="M195.1677,-447.8389C192.1969,-445.106 189.0784,-442.4018 186,-440 172.7771,-429.6831 168.09,-429.097 154,-420 152.7609,-419.2 151.5017,-418.3829 150.2316,-417.5552"></path>
<polygon fill="#000000" stroke="#000000" points="152.0651,-414.5721 141.7855,-412.0067 148.2216,-420.4225 152.0651,-414.5721"></polygon>
</g>
<!-- N -->
<g id="node3" class="node">
<title>N</title>
<polygon fill="none" stroke="#000000" points="285,-484 249,-484 249,-448 285,-448 285,-484"></polygon>
<text text-anchor="middle" x="267" y="-461.8" font-family="Times,serif" font-size="14.00" fill="#000000">N</text>
</g>
<!-- ln -->
<g id="node17" class="node">
<title>ln</title>
<text text-anchor="middle" x="200" y="-389.8" font-family="Times,serif" font-size="14.00" fill="#000000">IDNTER</text>
</g>
<!-- N&#45;&gt;ln -->
<g id="edge41" class="edge">
<title>N-&gt;ln</title>
<path fill="none" stroke="#000000" d="M250.0931,-447.8314C242.2187,-439.3694 232.708,-429.1489 224.0987,-419.8971"></path>
<polygon fill="#000000" stroke="#000000" points="226.5092,-417.3497 217.1346,-412.4133 221.3847,-422.1183 226.5092,-417.3497"></polygon>
</g>
<!-- E -->
<g id="node4" class="node">
<title>E</title>
<polygon fill="none" stroke="#000000" points="339,-484 303,-484 303,-448 339,-448 339,-484"></polygon>
<text text-anchor="middle" x="321" y="-461.8" font-family="Times,serif" font-size="14.00" fill="#000000">E</text>
</g>
<!-- le1 -->
<g id="node18" class="node">
<title>le1</title>
<text text-anchor="middle" x="321" y="-389.8" font-family="Times,serif" font-size="14.00" fill="#000000">.</text>
</g>
<!-- E&#45;&gt;le1 -->
<g id="edge42" class="edge">
<title>E-&gt;le1</title>
<path fill="none" stroke="#000000" d="M321,-447.8314C321,-440.131 321,-430.9743 321,-422.4166"></path>
<polygon fill="#000000" stroke="#000000" points="324.5001,-422.4132 321,-412.4133 317.5001,-422.4133 324.5001,-422.4132"></polygon>
</g>
<!-- T -->
<g id="node5" class="node">
<title>T</title>
<polygon fill="none" stroke="#000000" points="393,-484 357,-484 357,-448 393,-448 393,-484"></polygon>
<text text-anchor="middle" x="375" y="-461.8" font-family="Times,serif" font-size="14.00" fill="#000000">T</text>
</g>
<!-- lt1 -->
<g id="node24" class="node">
<title>lt1</title>
<text text-anchor="middle" x="435" y="-389.8" font-family="Times,serif" font-size="14.00" fill="#000000">.</text>
</g>
<!-- T&#45;&gt;lt1 -->
<g id="edge43" class="edge">
<title>T-&gt;lt1</title>
<path fill="none" stroke="#000000" d="M390.1405,-447.8314C397.1217,-439.454 405.5391,-429.3531 413.1876,-420.1749"></path>
<polygon fill="#000000" stroke="#000000" points="415.9425,-422.3362 419.6556,-412.4133 410.5649,-417.8548 415.9425,-422.3362"></polygon>
</g>
<!-- F -->
<g id="node6" class="node">
<title>F</title>
<polygon fill="none" stroke="#000000" points="447,-484 411,-484 411,-448 447,-448 447,-484"></polygon>
<text text-anchor="middle" x="429" y="-461.8" font-family="Times,serif" font-size="14.00" fill="#000000">F</text>
</g>
<!-- lf1 -->
<g id="node30" class="node">
<title>lf1</title>
<text text-anchor="middle" x="730" y="-389.8" font-family="Times,serif" font-size="14.00" fill="#000000">+</text>
</g>
<!-- F&#45;&gt;lf1 -->
<g id="edge44" class="edge">
<title>F-&gt;lf1</title>
<path fill="none" stroke="#000000" d="M447.3758,-461.6045C495.839,-450.0119 627.8492,-418.4347 692.8416,-402.8884"></path>
<polygon fill="#000000" stroke="#000000" points="693.7627,-406.2669 702.674,-400.5364 692.1341,-399.4589 693.7627,-406.2669"></polygon>
</g>
<!-- ls21 -->
<g id="node8" class="node">
<title>ls21</title>
<text text-anchor="middle" x="43" y="-317.8" font-family="Times,serif" font-size="14.00" fill="#000000">*</text>
</g>
<!-- ls1&#45;&gt;ls21 -->
<g id="edge1" class="edge">
<title>ls1-&gt;ls21</title>
<path fill="none" stroke="#000000" d="M96.8314,-375.8314C86,-365 72.2876,-351.2876 61.4133,-340.4133"></path>
</g>
<!-- ls22 -->
<g id="node9" class="node">
<title>ls22</title>
<text text-anchor="middle" x="115" y="-317.8" font-family="Times,serif" font-size="14.00" fill="#000000">;</text>
</g>
<!-- ls1&#45;&gt;ls22 -->
<g id="edge2" class="edge">
<title>ls1-&gt;ls22</title>
<path fill="none" stroke="#000000" d="M115,-375.8314C115,-365 115,-351.2876 115,-340.4133"></path>
</g>
<!-- ls31 -->
<g id="node10" class="node">
<title>ls31</title>
<text text-anchor="middle" x="43" y="-245.8" font-family="Times,serif" font-size="14.00" fill="#000000">.</text>
</g>
<!-- ls21&#45;&gt;ls31 -->
<g id="edge3" class="edge">
<title>ls21-&gt;ls31</title>
<path fill="none" stroke="#000000" d="M43,-303.8314C43,-293 43,-279.2876 43,-268.4133"></path>
</g>
<!-- ls41 -->
<g id="node11" class="node">
<title>ls41</title>
<text text-anchor="middle" x="43" y="-173.8" font-family="Times,serif" font-size="14.00" fill="#000000">.</text>
</g>
<!-- ls31&#45;&gt;ls41 -->
<g id="edge4" class="edge">
<title>ls31-&gt;ls41</title>
<path fill="none" stroke="#000000" d="M43,-231.8314C43,-221 43,-207.2876 43,-196.4133"></path>
</g>
<!-- ls42 -->
<g id="node12" class="node">
<title>ls42</title>
<text text-anchor="middle" x="115" y="-173.8" font-family="Times,serif" font-size="14.00" fill="#000000">,</text>
</g>
<!-- ls31&#45;&gt;ls42 -->
<g id="edge5" class="edge">
<title>ls31-&gt;ls42</title>
<path fill="none" stroke="#000000" d="M61.1686,-231.8314C72,-221 85.7124,-207.2876 96.5867,-196.4133"></path>
</g>
<!-- ls51 -->
<g id="node13" class="node">
<title>ls51</title>
<text text-anchor="middle" x="43" y="-101.8" font-family="Times,serif" font-size="14.00" fill="#000000">.</text>
</g>
<!-- ls41&#45;&gt;ls51 -->
<g id="edge6" class="edge">
<title>ls41-&gt;ls51</title>
<path fill="none" stroke="#000000" d="M43,-159.8314C43,-149 43,-135.2876 43,-124.4133"></path>
</g>
<!-- ls52 -->
<g id="node14" class="node">
<title>ls52</title>
<text text-anchor="middle" x="115" y="-101.8" font-family="Times,serif" font-size="14.00" fill="#000000">E</text>
</g>
<!-- ls41&#45;&gt;ls52 -->
<g id="edge7" class="edge">
<title>ls41-&gt;ls52</title>
<path fill="none" stroke="#000000" d="M61.1686,-159.8314C72,-149 85.7124,-135.2876 96.5867,-124.4133"></path>
</g>
<!-- ls61 -->
<g id="node15" class="node">
<title>ls61</title>
<text text-anchor="middle" x="43" y="-29.8" font-family="Times,serif" font-size="14.00" fill="#000000">N</text>
</g>
<!-- ls51&#45;&gt;ls61 -->
<g id="edge8" class="edge">
<title>ls51-&gt;ls61</title>
<path fill="none" stroke="#000000" d="M43,-87.8314C43,-77 43,-63.2876 43,-52.4133"></path>
</g>
<!-- ls62 -->
<g id="node16" class="node">
<title>ls62</title>
<text text-anchor="middle" x="115" y="-29.8" font-family="Times,serif" font-size="14.00" fill="#000000">'-&gt;'</text>
</g>
<!-- ls51&#45;&gt;ls62 -->
<g id="edge9" class="edge">
<title>ls51-&gt;ls62</title>
<path fill="none" stroke="#000000" d="M61.1686,-87.8314C72,-77 85.7124,-63.2876 96.5867,-52.4133"></path>
</g>
<!-- le21 -->
<g id="node19" class="node">
<title>le21</title>
<text text-anchor="middle" x="285" y="-317.8" font-family="Times,serif" font-size="14.00" fill="#000000">T</text>
</g>
<!-- le1&#45;&gt;le21 -->
<g id="edge10" class="edge">
<title>le1-&gt;le21</title>
<path fill="none" stroke="#000000" d="M311.9157,-375.8314C306.5,-365 299.6438,-351.2876 294.2066,-340.4133"></path>
</g>
<!-- le22 -->
<g id="node20" class="node">
<title>le22</title>
<text text-anchor="middle" x="357" y="-317.8" font-family="Times,serif" font-size="14.00" fill="#000000">*</text>
</g>
<!-- le1&#45;&gt;le22 -->
<g id="edge11" class="edge">
<title>le1-&gt;le22</title>
<path fill="none" stroke="#000000" d="M330.0843,-375.8314C335.5,-365 342.3562,-351.2876 347.7934,-340.4133"></path>
</g>
<!-- le31 -->
<g id="node21" class="node">
<title>le31</title>
<text text-anchor="middle" x="357" y="-245.8" font-family="Times,serif" font-size="14.00" fill="#000000">.</text>
</g>
<!-- le22&#45;&gt;le31 -->
<g id="edge12" class="edge">
<title>le22-&gt;le31</title>
<path fill="none" stroke="#000000" d="M357,-303.8314C357,-293 357,-279.2876 357,-268.4133"></path>
</g>
<!-- le41 -->
<g id="node22" class="node">
<title>le41</title>
<text text-anchor="middle" x="285" y="-173.8" font-family="Times,serif" font-size="14.00" fill="#000000">'+'</text>
</g>
<!-- le31&#45;&gt;le41 -->
<g id="edge13" class="edge">
<title>le31-&gt;le41</title>
<path fill="none" stroke="#000000" d="M338.8314,-231.8314C328,-221 314.2876,-207.2876 303.4133,-196.4133"></path>
</g>
<!-- le42 -->
<g id="node23" class="node">
<title>le42</title>
<text text-anchor="middle" x="357" y="-173.8" font-family="Times,serif" font-size="14.00" fill="#000000">T</text>
</g>
<!-- le31&#45;&gt;le42 -->
<g id="edge14" class="edge">
<title>le31-&gt;le42</title>
<path fill="none" stroke="#000000" d="M357,-231.8314C357,-221 357,-207.2876 357,-196.4133"></path>
</g>
<!-- lt21 -->
<g id="node25" class="node">
<title>lt21</title>
<text text-anchor="middle" x="435" y="-317.8" font-family="Times,serif" font-size="14.00" fill="#000000">F</text>
</g>
<!-- lt1&#45;&gt;lt21 -->
<g id="edge15" class="edge">
<title>lt1-&gt;lt21</title>
<path fill="none" stroke="#000000" d="M435,-375.8314C435,-365 435,-351.2876 435,-340.4133"></path>
</g>
<!-- lt22 -->
<g id="node26" class="node">
<title>lt22</title>
<text text-anchor="middle" x="507" y="-317.8" font-family="Times,serif" font-size="14.00" fill="#000000">*</text>
</g>
<!-- lt1&#45;&gt;lt22 -->
<g id="edge16" class="edge">
<title>lt1-&gt;lt22</title>
<path fill="none" stroke="#000000" d="M453.1686,-375.8314C464,-365 477.7124,-351.2876 488.5867,-340.4133"></path>
</g>
<!-- lt31 -->
<g id="node27" class="node">
<title>lt31</title>
<text text-anchor="middle" x="507" y="-245.8" font-family="Times,serif" font-size="14.00" fill="#000000">.</text>
</g>
<!-- lt22&#45;&gt;lt31 -->
<g id="edge17" class="edge">
<title>lt22-&gt;lt31</title>
<path fill="none" stroke="#000000" d="M507,-303.8314C507,-293 507,-279.2876 507,-268.4133"></path>
</g>
<!-- lt41 -->
<g id="node28" class="node">
<title>lt41</title>
<text text-anchor="middle" x="435" y="-173.8" font-family="Times,serif" font-size="14.00" fill="#000000">'.'</text>
</g>
<!-- lt31&#45;&gt;lt41 -->
<g id="edge18" class="edge">
<title>lt31-&gt;lt41</title>
<path fill="none" stroke="#000000" d="M488.8314,-231.8314C478,-221 464.2876,-207.2876 453.4133,-196.4133"></path>
</g>
<!-- lt42 -->
<g id="node29" class="node">
<title>lt42</title>
<text text-anchor="middle" x="507" y="-173.8" font-family="Times,serif" font-size="14.00" fill="#000000">F</text>
</g>
<!-- lt31&#45;&gt;lt42 -->
<g id="edge19" class="edge">
<title>lt31-&gt;lt42</title>
<path fill="none" stroke="#000000" d="M507,-231.8314C507,-221 507,-207.2876 507,-196.4133"></path>
</g>
<!-- lf21 -->
<g id="node31" class="node">
<title>lf21</title>
<text text-anchor="middle" x="730" y="-317.8" font-family="Times,serif" font-size="14.00" fill="#000000">+</text>
</g>
<!-- lf1&#45;&gt;lf21 -->
<g id="edge20" class="edge">
<title>lf1-&gt;lf21</title>
<path fill="none" stroke="#000000" d="M730,-375.8314C730,-365 730,-351.2876 730,-340.4133"></path>
</g>
<!-- lf22 -->
<g id="node32" class="node">
<title>lf22</title>
<text text-anchor="middle" x="910" y="-317.8" font-family="Times,serif" font-size="14.00" fill="#000000">.</text>
</g>
<!-- lf1&#45;&gt;lf22 -->
<g id="edge21" class="edge">
<title>lf1-&gt;lf22</title>
<path fill="none" stroke="#000000" d="M757.3381,-383.0647C791.3667,-369.4533 849.1212,-346.3515 882.9944,-332.8022"></path>
</g>
<!-- lf31 -->
<g id="node33" class="node">
<title>lf31</title>
<text text-anchor="middle" x="694" y="-245.8" font-family="Times,serif" font-size="14.00" fill="#000000">+</text>
</g>
<!-- lf21&#45;&gt;lf31 -->
<g id="edge22" class="edge">
<title>lf21-&gt;lf31</title>
<path fill="none" stroke="#000000" d="M720.9157,-303.8314C715.5,-293 708.6438,-279.2876 703.2066,-268.4133"></path>
</g>
<!-- lf32 -->
<g id="node34" class="node">
<title>lf32</title>
<text text-anchor="middle" x="766" y="-245.8" font-family="Times,serif" font-size="14.00" fill="#000000">.</text>
</g>
<!-- lf21&#45;&gt;lf32 -->
<g id="edge23" class="edge">
<title>lf21-&gt;lf32</title>
<path fill="none" stroke="#000000" d="M739.0843,-303.8314C744.5,-293 751.3562,-279.2876 756.7934,-268.4133"></path>
</g>
<!-- lf33 -->
<g id="node35" class="node">
<title>lf33</title>
<text text-anchor="middle" x="910" y="-245.8" font-family="Times,serif" font-size="14.00" fill="#000000">.</text>
</g>
<!-- lf22&#45;&gt;lf33 -->
<g id="edge24" class="edge">
<title>lf22-&gt;lf33</title>
<path fill="none" stroke="#000000" d="M910,-303.8314C910,-293 910,-279.2876 910,-268.4133"></path>
</g>
<!-- lf34 -->
<g id="node36" class="node">
<title>lf34</title>
<text text-anchor="middle" x="982" y="-245.8" font-family="Times,serif" font-size="14.00" fill="#000000">'/)'</text>
</g>
<!-- lf22&#45;&gt;lf34 -->
<g id="edge25" class="edge">
<title>lf22-&gt;lf34</title>
<path fill="none" stroke="#000000" d="M928.1686,-303.8314C939,-293 952.7124,-279.2876 963.5867,-268.4133"></path>
</g>
<!-- lf41 -->
<g id="node37" class="node">
<title>lf41</title>
<text text-anchor="middle" x="622" y="-173.8" font-family="Times,serif" font-size="14.00" fill="#000000">+</text>
</g>
<!-- lf31&#45;&gt;lf41 -->
<g id="edge26" class="edge">
<title>lf31-&gt;lf41</title>
<path fill="none" stroke="#000000" d="M675.8314,-231.8314C665,-221 651.2876,-207.2876 640.4133,-196.4133"></path>
</g>
<!-- lf42 -->
<g id="node38" class="node">
<title>lf42</title>
<text text-anchor="middle" x="694" y="-173.8" font-family="Times,serif" font-size="14.00" fill="#000000">.</text>
</g>
<!-- lf31&#45;&gt;lf42 -->
<g id="edge27" class="edge">
<title>lf31-&gt;lf42</title>
<path fill="none" stroke="#000000" d="M694,-231.8314C694,-221 694,-207.2876 694,-196.4133"></path>
</g>
<!-- lf44 -->
<g id="node39" class="node">
<title>lf44</title>
<text text-anchor="middle" x="766" y="-173.8" font-family="Times,serif" font-size="14.00" fill="#000000">.</text>
</g>
<!-- lf32&#45;&gt;lf44 -->
<g id="edge28" class="edge">
<title>lf32-&gt;lf44</title>
<path fill="none" stroke="#000000" d="M766,-231.8314C766,-221 766,-207.2876 766,-196.4133"></path>
</g>
<!-- lf43 -->
<g id="node40" class="node">
<title>lf43</title>
<text text-anchor="middle" x="838" y="-173.8" font-family="Times,serif" font-size="14.00" fill="#000000">']'</text>
</g>
<!-- lf32&#45;&gt;lf43 -->
<g id="edge29" class="edge">
<title>lf32-&gt;lf43</title>
<path fill="none" stroke="#000000" d="M784.1686,-231.8314C795,-221 808.7124,-207.2876 819.5867,-196.4133"></path>
</g>
<!-- lf45 -->
<g id="node41" class="node">
<title>lf45</title>
<text text-anchor="middle" x="910" y="-173.8" font-family="Times,serif" font-size="14.00" fill="#000000">'(/'</text>
</g>
<!-- lf33&#45;&gt;lf45 -->
<g id="edge30" class="edge">
<title>lf33-&gt;lf45</title>
<path fill="none" stroke="#000000" d="M910,-231.8314C910,-221 910,-207.2876 910,-196.4133"></path>
</g>
<!-- lf56 -->
<g id="node47" class="node">
<title>lf56</title>
<text text-anchor="middle" x="982" y="-173.8" font-family="Times,serif" font-size="14.00" fill="#000000">E</text>
</g>
<!-- lf33&#45;&gt;lf56 -->
<g id="edge31" class="edge">
<title>lf33-&gt;lf56</title>
<path fill="none" stroke="#000000" d="M928.1686,-231.8314C939,-221 952.7124,-207.2876 963.5867,-196.4133"></path>
</g>
<!-- lf51 -->
<g id="node42" class="node">
<title>lf51</title>
<text text-anchor="middle" x="596" y="-101.8" font-family="Times,serif" font-size="14.00" fill="#000000">'IDNTER'</text>
</g>
<!-- lf41&#45;&gt;lf51 -->
<g id="edge32" class="edge">
<title>lf41-&gt;lf51</title>
<path fill="none" stroke="#000000" d="M615.4391,-159.8314C611.5278,-149 606.5761,-135.2876 602.6492,-124.4133"></path>
</g>
<!-- lf52 -->
<g id="node43" class="node">
<title>lf52</title>
<text text-anchor="middle" x="687" y="-101.8" font-family="Times,serif" font-size="14.00" fill="#000000">'ELTER'</text>
</g>
<!-- lf41&#45;&gt;lf52 -->
<g id="edge33" class="edge">
<title>lf41-&gt;lf52</title>
<path fill="none" stroke="#000000" d="M638.4022,-159.8314C648.1805,-149 660.5598,-135.2876 670.3769,-124.4133"></path>
</g>
<!-- lf53 -->
<g id="node44" class="node">
<title>lf53</title>
<text text-anchor="middle" x="766" y="-101.8" font-family="Times,serif" font-size="14.00" fill="#000000">.</text>
</g>
<!-- lf42&#45;&gt;lf53 -->
<g id="edge34" class="edge">
<title>lf42-&gt;lf53</title>
<path fill="none" stroke="#000000" d="M712.1686,-159.8314C723,-149 736.7124,-135.2876 747.5867,-124.4133"></path>
</g>
<!-- lf54 -->
<g id="node45" class="node">
<title>lf54</title>
<text text-anchor="middle" x="838" y="-101.8" font-family="Times,serif" font-size="14.00" fill="#000000">')'</text>
</g>
<!-- lf42&#45;&gt;lf54 -->
<g id="edge35" class="edge">
<title>lf42-&gt;lf54</title>
<path fill="none" stroke="#000000" d="M717.454,-159.7714C721.5244,-156.9867 725.8011,-154.284 730,-152 760.1612,-135.5937 770.6114,-137.9146 802,-124 804.8108,-122.754 807.7188,-121.4045 810.6077,-120.024"></path>
</g>
<!-- lf55 -->
<g id="node46" class="node">
<title>lf55</title>
<text text-anchor="middle" x="910" y="-101.8" font-family="Times,serif" font-size="14.00" fill="#000000">'['</text>
</g>
<!-- lf44&#45;&gt;lf55 -->
<g id="edge36" class="edge">
<title>lf44-&gt;lf55</title>
<path fill="none" stroke="#000000" d="M789.454,-159.7714C793.5244,-156.9867 797.8011,-154.284 802,-152 832.1612,-135.5937 842.6114,-137.9146 874,-124 876.8108,-122.754 879.7188,-121.4045 882.6077,-120.024"></path>
</g>
<!-- lf62 -->
<g id="node49" class="node">
<title>lf62</title>
<text text-anchor="middle" x="982" y="-101.8" font-family="Times,serif" font-size="14.00" fill="#000000">E</text>
</g>
<!-- lf44&#45;&gt;lf62 -->
<g id="edge37" class="edge">
<title>lf44-&gt;lf62</title>
<path fill="none" stroke="#000000" d="M787.9461,-159.9003C792.3944,-156.895 797.1894,-154.0838 802,-152 861.8271,-126.085 884.274,-144.9944 946,-124 948.9108,-123.01 951.8845,-121.8285 954.8135,-120.5507"></path>
</g>
<!-- lf61 -->
<g id="node48" class="node">
<title>lf61</title>
<text text-anchor="middle" x="730" y="-29.8" font-family="Times,serif" font-size="14.00" fill="#000000">'('</text>
</g>
<!-- lf53&#45;&gt;lf61 -->
<g id="edge38" class="edge">
<title>lf53-&gt;lf61</title>
<path fill="none" stroke="#000000" d="M756.9157,-87.8314C751.5,-77 744.6438,-63.2876 739.2066,-52.4133"></path>
</g>
<!-- lf63 -->
<g id="node50" class="node">
<title>lf63</title>
<text text-anchor="middle" x="802" y="-29.8" font-family="Times,serif" font-size="14.00" fill="#000000">E</text>
</g>
<!-- lf53&#45;&gt;lf63 -->
<g id="edge39" class="edge">
<title>lf53-&gt;lf63</title>
<path fill="none" stroke="#000000" d="M775.0843,-87.8314C780.5,-77 787.3562,-63.2876 792.7934,-52.4133"></path>
</g>
</g>
</svg>