<!DOCTYPE svg [<!ENTITY nbsp "&#160;">]><svg width="1084pt" height="524pt" viewBox="0 0 1084 524" xmlns="http://www.w3.org/2000/svg" xmlns:xlink="http://www.w3.org/1999/xlink">
<g id="graph0" class="graph" transform="scale(1 1) rotate(0) translate(4 520)">
<title>G</title>
<polygon fill="#ffffff" stroke="transparent" points="-4,4 -4,-520 1080,-520 1080,4 -4,4"></polygon>
<g id="clust1" class="cluster">
<title>clusterA</title>
<polygon fill="none" stroke="#000000" points="209,-456 209,-508 477,-508 477,-456 209,-456"></polygon>
</g>
<g id="clust2" class="cluster">
<title>clusterS</title>
<polygon fill="none" stroke="#000000" points="8,-8 8,-434 158,-434 158,-8 8,-8"></polygon>
</g>
<g id="clust8" class="cluster">
<title>clusterN</title>
<polygon fill="none" stroke="#000000" points="166,-380 166,-436 262,-436 262,-380 166,-380"></polygon>
</g>
<g id="clust9" class="cluster">
<title>clusterE</title>
<polygon fill="none" stroke="#000000" points="270,-156 270,-434 420,-434 420,-156 270,-156"></polygon>
</g>
<g id="clust13" class="cluster">
<title>clusterT</title>
<polygon fill="none" stroke="#000000" points="428,-156 428,-434 578,-434 578,-156 428,-156"></polygon>
</g>
<g id="clust17" class="cluster">
<title>clusterf</title>
<polygon fill="none" stroke="#000000" points="586,-8 586,-434 1068,-434 1068,-8 586,-8"></polygon>
</g>
<!-- A -->
<g id="node1" class="node">
<title>A</title>
<polygon fill="none" stroke="#000000" points="172,-500 145,-482 172,-464 199,-482 172,-500"></polygon>
<polyline fill="none" stroke="#000000" points="154,-488 154,-476 "></polyline>
<polyline fill="none" stroke="#000000" points="163,-470 181,-470 "></polyline>
<polyline fill="none" stroke="#000000" points="190,-476 190,-488 "></polyline>
<polyline fill="none" stroke="#000000" points="181,-494 163,-494 "></polyline>
<text text-anchor="middle" x="172" y="-477.8" font-family="Times,serif" font-size="14.00" fill="#000000">A</text>
</g>
<!-- S -->
<g id="node2" class="node">
<title>S</title>
<polygon fill="none" stroke="#000000" points="253,-500 217,-500 217,-464 253,-464 253,-500"></polygon>
<text text-anchor="middle" x="235" y="-477.8" font-family="Times,serif" font-size="14.00" fill="#000000">S</text>
</g>
<!-- ls1 -->
<g id="node7" class="node">
<title>ls1</title>
<text text-anchor="middle" x="123" y="-403.8" font-family="Times,serif" font-size="14.00" fill="#000000">.</text>
</g>
<!-- S&#45;&gt;ls1 -->
<g id="edge40" class="edge">
<title>S-&gt;ls1</title>
<path fill="none" stroke="#000000" d="M218.0652,-463.9629C214.8844,-461.092 211.4646,-458.3114 208,-456 189.455,-443.6279 181.3862,-447.0073 162,-436 159.7168,-434.7036 157.405,-433.3023 155.1062,-431.8416"></path>
<polygon fill="#000000" stroke="#000000" points="156.6494,-428.6629 146.3924,-426.009 152.7557,-434.48 156.6494,-428.6629"></polygon>
</g>
<!-- N -->
<g id="node3" class="node">
<title>N</title>
<polygon fill="none" stroke="#000000" points="307,-500 271,-500 271,-464 307,-464 307,-500"></polygon>
<text text-anchor="middle" x="289" y="-477.8" font-family="Times,serif" font-size="14.00" fill="#000000">N</text>
</g>
<!-- ln -->
<g id="node17" class="node">
<title>ln</title>
<text text-anchor="start" x="181.9316" y="-412.4" font-family="Times,serif" font-size="14.00" fill="#000000"> 'IDNTER'</text>
<text text-anchor="start" x="191" y="-394.8" font-family="Times,serif" font-size="14.00" fill="#000000"> &nbsp;&nbsp;&nbsp;&nbsp;&nbsp;&nbsp;&nbsp;</text>
<text text-anchor="start" x="219" y="-394.8" font-family="Times,serif" font-size="18.00" fill="#ff0000">#2</text>
</g>
<!-- N&#45;&gt;ln -->
<g id="edge41" class="edge">
<title>N-&gt;ln</title>
<path fill="none" stroke="#000000" d="M270.8446,-464.0867C262.0698,-455.4289 251.349,-444.851 241.5922,-435.2243"></path>
<polygon fill="#000000" stroke="#000000" points="243.9438,-432.6277 234.3672,-428.0956 239.0273,-437.6105 243.9438,-432.6277"></polygon>
</g>
<!-- E -->
<g id="node4" class="node">
<title>E</title>
<polygon fill="none" stroke="#000000" points="361,-500 325,-500 325,-464 361,-464 361,-500"></polygon>
<text text-anchor="middle" x="343" y="-477.8" font-family="Times,serif" font-size="14.00" fill="#000000">E</text>
</g>
<!-- le1 -->
<g id="node18" class="node">
<title>le1</title>
<text text-anchor="middle" x="343" y="-403.8" font-family="Times,serif" font-size="14.00" fill="#000000">.</text>
</g>
<!-- E&#45;&gt;le1 -->
<g id="edge42" class="edge">
<title>E-&gt;le1</title>
<path fill="none" stroke="#000000" d="M343,-463.7079C343,-455.4635 343,-445.5376 343,-436.3622"></path>
<polygon fill="#000000" stroke="#000000" points="346.5001,-436.0817 343,-426.0817 339.5001,-436.0818 346.5001,-436.0817"></polygon>
</g>
<!-- T -->
<g id="node5" class="node">
<title>T</title>
<polygon fill="none" stroke="#000000" points="415,-500 379,-500 379,-464 415,-464 415,-500"></polygon>
<text text-anchor="middle" x="397" y="-477.8" font-family="Times,serif" font-size="14.00" fill="#000000">T</text>
</g>
<!-- lt1 -->
<g id="node24" class="node">
<title>lt1</title>
<text text-anchor="middle" x="463" y="-403.8" font-family="Times,serif" font-size="14.00" fill="#000000">.</text>
</g>
<!-- T&#45;&gt;lt1 -->
<g id="edge43" class="edge">
<title>T-&gt;lt1</title>
<path fill="none" stroke="#000000" d="M413.3146,-463.7079C421.387,-454.657 431.267,-443.5795 440.0843,-433.6933"></path>
<polygon fill="#000000" stroke="#000000" points="442.8289,-435.8744 446.8731,-426.0817 437.6048,-431.215 442.8289,-435.8744"></polygon>
</g>
<!-- F -->
<g id="node6" class="node">
<title>F</title>
<polygon fill="none" stroke="#000000" points="469,-500 433,-500 433,-464 469,-464 469,-500"></polygon>
<text text-anchor="middle" x="451" y="-477.8" font-family="Times,serif" font-size="14.00" fill="#000000">F</text>
</g>
<!-- lf1 -->
<g id="node30" class="node">
<title>lf1</title>
<text text-anchor="middle" x="773" y="-403.8" font-family="Times,serif" font-size="14.00" fill="#000000">+</text>
</g>
<!-- F&#45;&gt;lf1 -->
<g id="edge44" class="edge">
<title>F-&gt;lf1</title>
<path fill="none" stroke="#000000" d="M469.2347,-477.8094C520.4854,-466.0313 666.5744,-432.458 735.7779,-416.5541"></path>
<polygon fill="#000000" stroke="#000000" points="736.8425,-419.9008 745.8045,-414.2499 735.2746,-413.0786 736.8425,-419.9008"></polygon>
</g>
<!-- ls21 -->
<g id="node8" class="node">
<title>ls21</title>
<text text-anchor="middle" x="51" y="-329.8" font-family="Times,serif" font-size="14.00" fill="#000000">*</text>
</g>
<!-- ls1&#45;&gt;ls21 -->
<g id="edge1" class="edge">
<title>ls1-&gt;ls21</title>
<path fill="none" stroke="#000000" d="M105.2022,-389.7079C94.0419,-378.2375 79.7143,-363.512 68.593,-352.0817"></path>
</g>
<!-- ls22 -->
<g id="node9" class="node">
<title>ls22</title>
<text text-anchor="middle" x="123" y="-329.8" font-family="Times,serif" font-size="14.00" fill="#000000">;</text>
</g>
<!-- ls1&#45;&gt;ls22 -->
<g id="edge2" class="edge">
<title>ls1-&gt;ls22</title>
<path fill="none" stroke="#000000" d="M123,-389.7079C123,-378.2375 123,-363.512 123,-352.0817"></path>
</g>
<!-- ls31 -->
<g id="node10" class="node">
<title>ls31</title>
<text text-anchor="middle" x="51" y="-255.8" font-family="Times,serif" font-size="14.00" fill="#000000">.</text>
</g>
<!-- ls21&#45;&gt;ls31 -->
<g id="edge3" class="edge">
<title>ls21-&gt;ls31</title>
<path fill="none" stroke="#000000" d="M51,-315.7079C51,-304.2375 51,-289.512 51,-278.0817"></path>
</g>
<!-- ls41 -->
<g id="node11" class="node">
<title>ls41</title>
<text text-anchor="middle" x="43" y="-179.8" font-family="Times,serif" font-size="14.00" fill="#000000">.</text>
</g>
<!-- ls31&#45;&gt;ls41 -->
<g id="edge4" class="edge">
<title>ls31-&gt;ls41</title>
<path fill="none" stroke="#000000" d="M49.1041,-241.9891C47.8381,-229.9618 46.1789,-214.1999 44.91,-202.145"></path>
</g>
<!-- ls42 -->
<g id="node12" class="node">
<title>ls42</title>
<text text-anchor="start" x="115.5" y="-188.4" font-family="Times,serif" font-size="14.00" fill="#000000"> ,</text>
<text text-anchor="start" x="96" y="-170.8" font-family="Times,serif" font-size="14.00" fill="#000000"> &nbsp;&nbsp;&nbsp;&nbsp;&nbsp;&nbsp;&nbsp;</text>
<text text-anchor="start" x="124" y="-170.8" font-family="Times,serif" font-size="18.00" fill="#ff0000">#1</text>
</g>
<!-- ls31&#45;&gt;ls42 -->
<g id="edge5" class="edge">
<title>ls31-&gt;ls42</title>
<path fill="none" stroke="#000000" d="M67.1151,-241.9891C77.3264,-230.5764 90.5466,-215.8008 101.0866,-204.0209"></path>
</g>
<!-- ls51 -->
<g id="node13" class="node">
<title>ls51</title>
<text text-anchor="middle" x="43" y="-103.8" font-family="Times,serif" font-size="14.00" fill="#000000">.</text>
</g>
<!-- ls41&#45;&gt;ls51 -->
<g id="edge6" class="edge">
<title>ls41-&gt;ls51</title>
<path fill="none" stroke="#000000" d="M43,-165.9891C43,-153.9618 43,-138.1999 43,-126.145"></path>
</g>
<!-- ls52 -->
<g id="node14" class="node">
<title>ls52</title>
<text text-anchor="middle" x="115" y="-103.8" font-family="Times,serif" font-size="14.00" fill="#000000">E</text>
</g>
<!-- ls41&#45;&gt;ls52 -->
<g id="edge7" class="edge">
<title>ls41-&gt;ls52</title>
<path fill="none" stroke="#000000" d="M60.063,-165.9891C71.4572,-153.9618 86.3896,-138.1999 97.81,-126.145"></path>
</g>
<!-- ls61 -->
<g id="node15" class="node">
<title>ls61</title>
<text text-anchor="middle" x="43" y="-29.8" font-family="Times,serif" font-size="14.00" fill="#000000">N</text>
</g>
<!-- ls51&#45;&gt;ls61 -->
<g id="edge8" class="edge">
<title>ls51-&gt;ls61</title>
<path fill="none" stroke="#000000" d="M43,-89.7079C43,-78.2375 43,-63.512 43,-52.0817"></path>
</g>
<!-- ls62 -->
<g id="node16" class="node">
<title>ls62</title>
<text text-anchor="middle" x="115" y="-29.8" font-family="Times,serif" font-size="14.00" fill="#000000">'-&gt;'</text>
</g>
<!-- ls51&#45;&gt;ls62 -->
<g id="edge9" class="edge">
<title>ls51-&gt;ls62</title>
<path fill="none" stroke="#000000" d="M60.7978,-89.7079C71.9581,-78.2375 86.2857,-63.512 97.407,-52.0817"></path>
</g>
<!-- le21 -->
<g id="node19" class="node">
<title>le21</title>
<text text-anchor="middle" x="307" y="-329.8" font-family="Times,serif" font-size="14.00" fill="#000000">T</text>
</g>
<!-- le1&#45;&gt;le21 -->
<g id="edge10" class="edge">
<title>le1-&gt;le21</title>
<path fill="none" stroke="#000000" d="M334.1011,-389.7079C328.5209,-378.2375 321.3572,-363.512 315.7965,-352.0817"></path>
</g>
<!-- le22 -->
<g id="node20" class="node">
<title>le22</title>
<text text-anchor="middle" x="379" y="-329.8" font-family="Times,serif" font-size="14.00" fill="#000000">*</text>
</g>
<!-- le1&#45;&gt;le22 -->
<g id="edge11" class="edge">
<title>le1-&gt;le22</title>
<path fill="none" stroke="#000000" d="M351.8989,-389.7079C357.4791,-378.2375 364.6428,-363.512 370.2035,-352.0817"></path>
</g>
<!-- le31 -->
<g id="node21" class="node">
<title>le31</title>
<text text-anchor="middle" x="379" y="-255.8" font-family="Times,serif" font-size="14.00" fill="#000000">.</text>
</g>
<!-- le22&#45;&gt;le31 -->
<g id="edge12" class="edge">
<title>le22-&gt;le31</title>
<path fill="none" stroke="#000000" d="M379,-315.7079C379,-304.2375 379,-289.512 379,-278.0817"></path>
</g>
<!-- le41 -->
<g id="node22" class="node">
<title>le41</title>
<text text-anchor="middle" x="305" y="-179.8" font-family="Times,serif" font-size="14.00" fill="#000000">'+'</text>
</g>
<!-- le31&#45;&gt;le41 -->
<g id="edge13" class="edge">
<title>le31-&gt;le41</title>
<path fill="none" stroke="#000000" d="M361.463,-241.9891C349.7523,-229.9618 334.4052,-214.1999 322.6675,-202.145"></path>
</g>
<!-- le42 -->
<g id="node23" class="node">
<title>le42</title>
<text text-anchor="start" x="373.2237" y="-188.4" font-family="Times,serif" font-size="14.00" fill="#000000"> T </text>
<text text-anchor="start" x="358" y="-170.8" font-family="Times,serif" font-size="14.00" fill="#000000"> &nbsp;&nbsp;&nbsp;&nbsp;&nbsp;&nbsp;&nbsp;</text>
<text text-anchor="start" x="386" y="-170.8" font-family="Times,serif" font-size="18.00" fill="#ff0000">#3</text>
</g>
<!-- le31&#45;&gt;le42 -->
<g id="edge14" class="edge">
<title>le31-&gt;le42</title>
<path fill="none" stroke="#000000" d="M379.474,-241.9891C379.7743,-230.5764 380.1631,-215.8008 380.4731,-204.0209"></path>
</g>
<!-- lt21 -->
<g id="node25" class="node">
<title>lt21</title>
<text text-anchor="middle" x="463" y="-329.8" font-family="Times,serif" font-size="14.00" fill="#000000">F</text>
</g>
<!-- lt1&#45;&gt;lt21 -->
<g id="edge15" class="edge">
<title>lt1-&gt;lt21</title>
<path fill="none" stroke="#000000" d="M463,-389.7079C463,-378.2375 463,-363.512 463,-352.0817"></path>
</g>
<!-- lt22 -->
<g id="node26" class="node">
<title>lt22</title>
<text text-anchor="middle" x="535" y="-329.8" font-family="Times,serif" font-size="14.00" fill="#000000">*</text>
</g>
<!-- lt1&#45;&gt;lt22 -->
<g id="edge16" class="edge">
<title>lt1-&gt;lt22</title>
<path fill="none" stroke="#000000" d="M480.7978,-389.7079C491.9581,-378.2375 506.2857,-363.512 517.407,-352.0817"></path>
</g>
<!-- lt31 -->
<g id="node27" class="node">
<title>lt31</title>
<text text-anchor="middle" x="535" y="-255.8" font-family="Times,serif" font-size="14.00" fill="#000000">.</text>
</g>
<!-- lt22&#45;&gt;lt31 -->
<g id="edge17" class="edge">
<title>lt22-&gt;lt31</title>
<path fill="none" stroke="#000000" d="M535,-315.7079C535,-304.2375 535,-289.512 535,-278.0817"></path>
</g>
<!-- lt41 -->
<g id="node28" class="node">
<title>lt41</title>
<text text-anchor="middle" x="463" y="-179.8" font-family="Times,serif" font-size="14.00" fill="#000000">'.'</text>
</g>
<!-- lt31&#45;&gt;lt41 -->
<g id="edge18" class="edge">
<title>lt31-&gt;lt41</title>
<path fill="none" stroke="#000000" d="M517.937,-241.9891C506.5428,-229.9618 491.6104,-214.1999 480.19,-202.145"></path>
</g>
<!-- lt42 -->
<g id="node29" class="node">
<title>lt42</title>
<text text-anchor="start" x="531.6087" y="-188.4" font-family="Times,serif" font-size="14.00" fill="#000000"> F </text>
<text text-anchor="start" x="516" y="-170.8" font-family="Times,serif" font-size="14.00" fill="#000000"> &nbsp;&nbsp;&nbsp;&nbsp;&nbsp;&nbsp;&nbsp;</text>
<text text-anchor="start" x="544" y="-170.8" font-family="Times,serif" font-size="18.00" fill="#ff0000">#4</text>
</g>
<!-- lt31&#45;&gt;lt42 -->
<g id="edge19" class="edge">
<title>lt31-&gt;lt42</title>
<path fill="none" stroke="#000000" d="M535.9479,-241.9891C536.5486,-230.5764 537.3263,-215.8008 537.9463,-204.0209"></path>
</g>
<!-- lf21 -->
<g id="node31" class="node">
<title>lf21</title>
<text text-anchor="middle" x="773" y="-329.8" font-family="Times,serif" font-size="14.00" fill="#000000">+</text>
</g>
<!-- lf1&#45;&gt;lf21 -->
<g id="edge20" class="edge">
<title>lf1-&gt;lf21</title>
<path fill="none" stroke="#000000" d="M773,-389.7079C773,-378.2375 773,-363.512 773,-352.0817"></path>
</g>
<!-- lf22 -->
<g id="node32" class="node">
<title>lf22</title>
<text text-anchor="middle" x="953" y="-329.8" font-family="Times,serif" font-size="14.00" fill="#000000">.</text>
</g>
<!-- lf1&#45;&gt;lf22 -->
<g id="edge21" class="edge">
<title>lf1-&gt;lf22</title>
<path fill="none" stroke="#000000" d="M800.3381,-396.761C834.3667,-382.7715 892.1212,-359.0279 925.9944,-345.1023"></path>
</g>
<!-- lf31 -->
<g id="node33" class="node">
<title>lf31</title>
<text text-anchor="middle" x="737" y="-255.8" font-family="Times,serif" font-size="14.00" fill="#000000">+</text>
</g>
<!-- lf21&#45;&gt;lf31 -->
<g id="edge22" class="edge">
<title>lf21-&gt;lf31</title>
<path fill="none" stroke="#000000" d="M764.1011,-315.7079C758.5209,-304.2375 751.3572,-289.512 745.7965,-278.0817"></path>
</g>
<!-- lf32 -->
<g id="node34" class="node">
<title>lf32</title>
<text text-anchor="middle" x="809" y="-255.8" font-family="Times,serif" font-size="14.00" fill="#000000">.</text>
</g>
<!-- lf21&#45;&gt;lf32 -->
<g id="edge23" class="edge">
<title>lf21-&gt;lf32</title>
<path fill="none" stroke="#000000" d="M781.8989,-315.7079C787.4791,-304.2375 794.6428,-289.512 800.2035,-278.0817"></path>
</g>
<!-- lf33 -->
<g id="node35" class="node">
<title>lf33</title>
<text text-anchor="middle" x="953" y="-255.8" font-family="Times,serif" font-size="14.00" fill="#000000">.</text>
</g>
<!-- lf22&#45;&gt;lf33 -->
<g id="edge24" class="edge">
<title>lf22-&gt;lf33</title>
<path fill="none" stroke="#000000" d="M953,-315.7079C953,-304.2375 953,-289.512 953,-278.0817"></path>
</g>
<!-- lf34 -->
<g id="node36" class="node">
<title>lf34</title>
<text text-anchor="start" x="1016.5638" y="-264.4" font-family="Times,serif" font-size="14.00" fill="#000000"> '/)' </text>
<text text-anchor="start" x="1006" y="-246.8" font-family="Times,serif" font-size="14.00" fill="#000000"> &nbsp;&nbsp;&nbsp;&nbsp;&nbsp;&nbsp;&nbsp;</text>
<text text-anchor="start" x="1034" y="-246.8" font-family="Times,serif" font-size="18.00" fill="#ff0000">#7</text>
</g>
<!-- lf22&#45;&gt;lf34 -->
<g id="edge25" class="edge">
<title>lf22-&gt;lf34</title>
<path fill="none" stroke="#000000" d="M971.7865,-315.7079C982.8636,-304.9223 996.8965,-291.2586 1008.2923,-280.1628"></path>
</g>
<!-- lf41 -->
<g id="node37" class="node">
<title>lf41</title>
<text text-anchor="middle" x="665" y="-179.8" font-family="Times,serif" font-size="14.00" fill="#000000">+</text>
</g>
<!-- lf31&#45;&gt;lf41 -->
<g id="edge26" class="edge">
<title>lf31-&gt;lf41</title>
<path fill="none" stroke="#000000" d="M719.937,-241.9891C708.5428,-229.9618 693.6104,-214.1999 682.19,-202.145"></path>
</g>
<!-- lf42 -->
<g id="node38" class="node">
<title>lf42</title>
<text text-anchor="middle" x="737" y="-179.8" font-family="Times,serif" font-size="14.00" fill="#000000">.</text>
</g>
<!-- lf31&#45;&gt;lf42 -->
<g id="edge27" class="edge">
<title>lf31-&gt;lf42</title>
<path fill="none" stroke="#000000" d="M737,-241.9891C737,-229.9618 737,-214.1999 737,-202.145"></path>
</g>
<!-- lf44 -->
<g id="node39" class="node">
<title>lf44</title>
<text text-anchor="middle" x="809" y="-179.8" font-family="Times,serif" font-size="14.00" fill="#000000">.</text>
</g>
<!-- lf32&#45;&gt;lf44 -->
<g id="edge28" class="edge">
<title>lf32-&gt;lf44</title>
<path fill="none" stroke="#000000" d="M809,-241.9891C809,-229.9618 809,-214.1999 809,-202.145"></path>
</g>
<!-- lf43 -->
<g id="node40" class="node">
<title>lf43</title>
<text text-anchor="start" x="874.5091" y="-188.4" font-family="Times,serif" font-size="14.00" fill="#000000"> ']' </text>
<text text-anchor="start" x="862" y="-170.8" font-family="Times,serif" font-size="14.00" fill="#000000"> &nbsp;&nbsp;&nbsp;&nbsp;&nbsp;&nbsp;&nbsp;</text>
<text text-anchor="start" x="890" y="-170.8" font-family="Times,serif" font-size="18.00" fill="#ff0000">#6</text>
</g>
<!-- lf32&#45;&gt;lf43 -->
<g id="edge29" class="edge">
<title>lf32-&gt;lf43</title>
<path fill="none" stroke="#000000" d="M827.0109,-241.9891C838.4236,-230.5764 853.1992,-215.8008 864.9791,-204.0209"></path>
</g>
<!-- lf45 -->
<g id="node41" class="node">
<title>lf45</title>
<text text-anchor="middle" x="961" y="-179.8" font-family="Times,serif" font-size="14.00" fill="#000000">'(/'</text>
</g>
<!-- lf33&#45;&gt;lf45 -->
<g id="edge30" class="edge">
<title>lf33-&gt;lf45</title>
<path fill="none" stroke="#000000" d="M954.8959,-241.9891C956.1619,-229.9618 957.8211,-214.1999 959.09,-202.145"></path>
</g>
<!-- lf56 -->
<g id="node47" class="node">
<title>lf56</title>
<text text-anchor="middle" x="1033" y="-179.8" font-family="Times,serif" font-size="14.00" fill="#000000">E</text>
</g>
<!-- lf33&#45;&gt;lf56 -->
<g id="edge31" class="edge">
<title>lf33-&gt;lf56</title>
<path fill="none" stroke="#000000" d="M971.9589,-241.9891C984.6191,-229.9618 1001.2106,-214.1999 1013.9,-202.145"></path>
</g>
<!-- lf51 -->
<g id="node42" class="node">
<title>lf51</title>
<text text-anchor="start" x="602.1816" y="-112.4" font-family="Times,serif" font-size="14.00" fill="#000000"> 'IDNTER' </text>
<text text-anchor="start" x="613" y="-94.8" font-family="Times,serif" font-size="14.00" fill="#000000"> &nbsp;&nbsp;&nbsp;&nbsp;&nbsp;&nbsp;&nbsp;</text>
<text text-anchor="start" x="641" y="-94.8" font-family="Times,serif" font-size="18.00" fill="#ff0000">#5</text>
</g>
<!-- lf41&#45;&gt;lf51 -->
<g id="edge32" class="edge">
<title>lf41-&gt;lf51</title>
<path fill="none" stroke="#000000" d="M658.1274,-165.9891C653.7726,-154.5764 648.1345,-139.8008 643.6396,-128.0209"></path>
</g>
<!-- lf52 -->
<g id="node43" class="node">
<title>lf52</title>
<text text-anchor="start" x="704.0659" y="-112.4" font-family="Times,serif" font-size="14.00" fill="#000000"> 'ELTER' </text>
<text text-anchor="start" x="711" y="-94.8" font-family="Times,serif" font-size="14.00" fill="#000000"> &nbsp;&nbsp;&nbsp;&nbsp;&nbsp;&nbsp;&nbsp;</text>
<text text-anchor="start" x="739" y="-94.8" font-family="Times,serif" font-size="18.00" fill="#ff0000">#5</text>
</g>
<!-- lf41&#45;&gt;lf52 -->
<g id="edge33" class="edge">
<title>lf41-&gt;lf52</title>
<path fill="none" stroke="#000000" d="M681.352,-165.9891C691.7136,-154.5764 705.1282,-139.8008 715.8231,-128.0209"></path>
</g>
<!-- lf53 -->
<g id="node44" class="node">
<title>lf53</title>
<text text-anchor="middle" x="817" y="-103.8" font-family="Times,serif" font-size="14.00" fill="#000000">.</text>
</g>
<!-- lf42&#45;&gt;lf53 -->
<g id="edge34" class="edge">
<title>lf42-&gt;lf53</title>
<path fill="none" stroke="#000000" d="M755.9589,-165.9891C768.6191,-153.9618 785.2106,-138.1999 797.9,-126.145"></path>
</g>
<!-- lf54 -->
<g id="node45" class="node">
<title>lf54</title>
<text text-anchor="middle" x="889" y="-103.8" font-family="Times,serif" font-size="14.00" fill="#000000">')'</text>
</g>
<!-- lf42&#45;&gt;lf54 -->
<g id="edge35" class="edge">
<title>lf42-&gt;lf54</title>
<path fill="none" stroke="#000000" d="M757.9133,-165.9167C762.6762,-162.3254 767.8548,-158.8032 773,-156 806.0795,-137.9776 818.6326,-143.4254 853,-128 855.87,-126.7118 858.817,-125.2756 861.7296,-123.7804"></path>
</g>
<!-- lf55 -->
<g id="node46" class="node">
<title>lf55</title>
<text text-anchor="middle" x="961" y="-103.8" font-family="Times,serif" font-size="14.00" fill="#000000">'['</text>
</g>
<!-- lf44&#45;&gt;lf55 -->
<g id="edge36" class="edge">
<title>lf44-&gt;lf55</title>
<path fill="none" stroke="#000000" d="M829.9133,-165.9167C834.6762,-162.3254 839.8548,-158.8032 845,-156 878.0795,-137.9776 890.6326,-143.4254 925,-128 927.87,-126.7118 930.817,-125.2756 933.7296,-123.7804"></path>
</g>
<!-- lf62 -->
<g id="node49" class="node">
<title>lf62</title>
<text text-anchor="middle" x="1033" y="-103.8" font-family="Times,serif" font-size="14.00" fill="#000000">E</text>
</g>
<!-- lf44&#45;&gt;lf62 -->
<g id="edge37" class="edge">
<title>lf44-&gt;lf62</title>
<path fill="none" stroke="#000000" d="M828.8373,-165.8797C833.8216,-162.114 839.3649,-158.5274 845,-156 907.677,-127.8894 932.347,-151.2078 997,-128 999.9609,-126.9372 1002.9675,-125.6488 1005.9165,-124.244"></path>
</g>
<!-- lf61 -->
<g id="node48" class="node">
<title>lf61</title>
<text text-anchor="middle" x="781" y="-29.8" font-family="Times,serif" font-size="14.00" fill="#000000">'('</text>
</g>
<!-- lf53&#45;&gt;lf61 -->
<g id="edge38" class="edge">
<title>lf53-&gt;lf61</title>
<path fill="none" stroke="#000000" d="M808.1011,-89.7079C802.5209,-78.2375 795.3572,-63.512 789.7965,-52.0817"></path>
</g>
<!-- lf63 -->
<g id="node50" class="node">
<title>lf63</title>
<text text-anchor="middle" x="853" y="-29.8" font-family="Times,serif" font-size="14.00" fill="#000000">E</text>
</g>
<!-- lf53&#45;&gt;lf63 -->
<g id="edge39" class="edge">
<title>lf53-&gt;lf63</title>
<path fill="none" stroke="#000000" d="M825.8989,-89.7079C831.4791,-78.2375 838.6428,-63.512 844.2035,-52.0817"></path>
</g>
</g>
</svg>
