<svg width="350pt" height="404pt" viewBox="0 0 350 404" xmlns="http://www.w3.org/2000/svg" xmlns:xlink="http://www.w3.org/1999/xlink">
<g id="graph0" class="graph" transform="scale(1 1) rotate(0) translate(4 400)">
<title>%0</title>
<polygon fill="#ffffff" stroke="transparent" points="-4,4 -4,-400 346,-400 346,4 -4,4"></polygon>
<!-- 1 -->
<g id="node1" class="node">
<title>1</title>
<text text-anchor="middle" x="279" y="-13.8" font-family="Times,serif" font-size="14.00" fill="#000000">S</text>
</g>
<!-- 2 -->
<g id="node2" class="node">
<title>2</title>
<text text-anchor="middle" x="243" y="-85.8" font-family="Times,serif" font-size="14.00" fill="#000000">E</text>
</g>
<!-- 1&#45;&gt;2 -->
<g id="edge1" class="edge">
<title>1-&gt;2</title>
<path fill="none" stroke="#000000" d="M269.9157,-36.1686C265.9385,-44.1229 261.1845,-53.631 256.7861,-62.4277"></path>
<polygon fill="#000000" stroke="#000000" points="253.5483,-61.0772 252.2066,-71.5867 259.8093,-64.2077 253.5483,-61.0772"></polygon>
</g>
<!-- 3 -->
<g id="node3" class="node">
<title>3</title>
<text text-anchor="middle" x="315" y="-85.8" font-family="Times,serif" font-size="14.00" fill="#000000">$</text>
</g>
<!-- 1&#45;&gt;3 -->
<g id="edge2" class="edge">
<title>1-&gt;3</title>
<path fill="none" stroke="#000000" d="M288.0843,-36.1686C292.0615,-44.1229 296.8155,-53.631 301.2139,-62.4277"></path>
<polygon fill="#000000" stroke="#000000" points="298.1907,-64.2077 305.7934,-71.5867 304.4517,-61.0772 298.1907,-64.2077"></polygon>
</g>
<!-- 4 -->
<g id="node4" class="node">
<title>4</title>
<text text-anchor="middle" x="171" y="-157.8" font-family="Times,serif" font-size="14.00" fill="#000000">E</text>
</g>
<!-- 2&#45;&gt;4 -->
<g id="edge3" class="edge">
<title>2-&gt;4</title>
<path fill="none" stroke="#000000" d="M224.8314,-108.1686C216.2848,-116.7152 205.9443,-127.0557 196.6198,-136.3802"></path>
<polygon fill="#000000" stroke="#000000" points="194.0095,-134.0408 189.4133,-143.5867 198.9592,-138.9905 194.0095,-134.0408"></polygon>
</g>
<!-- 5 -->
<g id="node5" class="node">
<title>5</title>
<text text-anchor="middle" x="243" y="-157.8" font-family="Times,serif" font-size="14.00" fill="#000000">+</text>
</g>
<!-- 2&#45;&gt;5 -->
<g id="edge4" class="edge">
<title>2-&gt;5</title>
<path fill="none" stroke="#000000" d="M243,-108.1686C243,-115.869 243,-125.0257 243,-133.5834"></path>
<polygon fill="#000000" stroke="#000000" points="239.5001,-133.5867 243,-143.5867 246.5001,-133.5868 239.5001,-133.5867"></polygon>
</g>
<!-- 10 -->
<g id="node10" class="node">
<title>10</title>
<text text-anchor="middle" x="315" y="-157.8" font-family="Times,serif" font-size="14.00" fill="#000000">a</text>
</g>
<!-- 2&#45;&gt;10 -->
<g id="edge5" class="edge">
<title>2-&gt;10</title>
<path fill="none" stroke="#000000" d="M261.1686,-108.1686C269.7152,-116.7152 280.0557,-127.0557 289.3802,-136.3802"></path>
<polygon fill="#000000" stroke="#000000" points="287.0408,-138.9905 296.5867,-143.5867 291.9905,-134.0408 287.0408,-138.9905"></polygon>
</g>
<!-- 6 -->
<g id="node6" class="node">
<title>6</title>
<text text-anchor="middle" x="99" y="-229.8" font-family="Times,serif" font-size="14.00" fill="#000000">E</text>
</g>
<!-- 4&#45;&gt;6 -->
<g id="edge6" class="edge">
<title>4-&gt;6</title>
<path fill="none" stroke="#000000" d="M152.8314,-180.1686C144.2848,-188.7152 133.9443,-199.0557 124.6198,-208.3802"></path>
<polygon fill="#000000" stroke="#000000" points="122.0095,-206.0408 117.4133,-215.5867 126.9592,-210.9905 122.0095,-206.0408"></polygon>
</g>
<!-- 7 -->
<g id="node7" class="node">
<title>7</title>
<text text-anchor="middle" x="171" y="-229.8" font-family="Times,serif" font-size="14.00" fill="#000000">+</text>
</g>
<!-- 4&#45;&gt;7 -->
<g id="edge7" class="edge">
<title>4-&gt;7</title>
<path fill="none" stroke="#000000" d="M171,-180.1686C171,-187.869 171,-197.0257 171,-205.5834"></path>
<polygon fill="#000000" stroke="#000000" points="167.5001,-205.5867 171,-215.5867 174.5001,-205.5868 167.5001,-205.5867"></polygon>
</g>
<!-- 11 -->
<g id="node11" class="node">
<title>11</title>
<text text-anchor="middle" x="243" y="-229.8" font-family="Times,serif" font-size="14.00" fill="#000000">a</text>
</g>
<!-- 4&#45;&gt;11 -->
<g id="edge8" class="edge">
<title>4-&gt;11</title>
<path fill="none" stroke="#000000" d="M189.1686,-180.1686C197.7152,-188.7152 208.0557,-199.0557 217.3802,-208.3802"></path>
<polygon fill="#000000" stroke="#000000" points="215.0408,-210.9905 224.5867,-215.5867 219.9905,-206.0408 215.0408,-210.9905"></polygon>
</g>
<!-- 8 -->
<g id="node8" class="node">
<title>8</title>
<text text-anchor="middle" x="27" y="-301.8" font-family="Times,serif" font-size="14.00" fill="#000000">E</text>
</g>
<!-- 6&#45;&gt;8 -->
<g id="edge9" class="edge">
<title>6-&gt;8</title>
<path fill="none" stroke="#000000" d="M80.8314,-252.1686C72.2848,-260.7152 61.9443,-271.0557 52.6198,-280.3802"></path>
<polygon fill="#000000" stroke="#000000" points="50.0095,-278.0408 45.4133,-287.5867 54.9592,-282.9905 50.0095,-278.0408"></polygon>
</g>
<!-- 9 -->
<g id="node9" class="node">
<title>9</title>
<text text-anchor="middle" x="99" y="-301.8" font-family="Times,serif" font-size="14.00" fill="#000000">+</text>
</g>
<!-- 6&#45;&gt;9 -->
<g id="edge10" class="edge">
<title>6-&gt;9</title>
<path fill="none" stroke="#000000" d="M99,-252.1686C99,-259.869 99,-269.0257 99,-277.5834"></path>
<polygon fill="#000000" stroke="#000000" points="95.5001,-277.5867 99,-287.5867 102.5001,-277.5868 95.5001,-277.5867"></polygon>
</g>
<!-- 12 -->
<g id="node12" class="node">
<title>12</title>
<text text-anchor="middle" x="171" y="-301.8" font-family="Times,serif" font-size="14.00" fill="#000000">a</text>
</g>
<!-- 6&#45;&gt;12 -->
<g id="edge11" class="edge">
<title>6-&gt;12</title>
<path fill="none" stroke="#000000" d="M117.1686,-252.1686C125.7152,-260.7152 136.0557,-271.0557 145.3802,-280.3802"></path>
<polygon fill="#000000" stroke="#000000" points="143.0408,-282.9905 152.5867,-287.5867 147.9905,-278.0408 143.0408,-282.9905"></polygon>
</g>
<!-- 13 -->
<g id="node13" class="node">
<title>13</title>
<text text-anchor="middle" x="27" y="-373.8" font-family="Times,serif" font-size="14.00" fill="#000000">a</text>
</g>
<!-- 8&#45;&gt;13 -->
<g id="edge12" class="edge">
<title>8-&gt;13</title>
<path fill="none" stroke="#000000" d="M27,-324.1686C27,-331.869 27,-341.0257 27,-349.5834"></path>
<polygon fill="#000000" stroke="#000000" points="23.5001,-349.5867 27,-359.5867 30.5001,-349.5868 23.5001,-349.5867"></polygon>
</g>
</g>
</svg>