<?xml version="1.0" encoding="UTF-8" standalone="no"?>
<!DOCTYPE svg PUBLIC "-//W3C//DTD SVG 1.1//EN"
 "http://www.w3.org/Graphics/SVG/1.1/DTD/svg11.dtd">
<!-- Generated by graphviz version 2.40.1 (20161225.0304)
 -->
<!-- Title: G Pages: 1 -->
<svg width="538pt" height="138pt"
 viewBox="0.00 0.00 538.00 138.00" xmlns="http://www.w3.org/2000/svg" xmlns:xlink="http://www.w3.org/1999/xlink">
<g id="graph0" class="graph" transform="scale(1 1) rotate(0) translate(4 134)">
<title>G</title>
<polygon fill="#ffffff" stroke="transparent" points="-4,4 -4,-134 534,-134 534,4 -4,4"/>
<g id="clust1" class="cluster">
<title>cluster_0</title>
<polygon fill="#ffffff" stroke="#ffffff" points="8,-24 8,-106 78,-106 78,-24 8,-24"/>
<text text-anchor="start" x="29.5" y="-87.6" font-family="Times,serif" font-size="18.00" fill="#ff0000">#2</text>
</g>
<g id="clust2" class="cluster">
<title>cluster_1</title>
<polygon fill="#ffffff" stroke="#ffffff" points="98,-20 98,-111 168,-111 168,-20 98,-20"/>
<text text-anchor="start" x="119.5" y="-92.6" font-family="Times,serif" font-size="18.00" fill="#ff0000">#5</text>
</g>
<g id="clust3" class="cluster">
<title>cluster_2</title>
<polygon fill="#ffffff" stroke="#ffffff" points="188,-20 188,-111 258,-111 258,-20 188,-20"/>
<text text-anchor="start" x="209.5" y="-92.6" font-family="Times,serif" font-size="18.00" fill="#ff0000">#6</text>
</g>
<g id="clust4" class="cluster">
<title>cluster_3</title>
<polygon fill="#ffffff" stroke="#ffffff" points="278,-8 278,-122 348,-122 348,-8 278,-8"/>
<text text-anchor="start" x="299.5" y="-103.6" font-family="Times,serif" font-size="18.00" fill="#ff0000">#5</text>
</g>
<g id="clust5" class="cluster">
<title>cluster_4</title>
<polygon fill="#ffffff" stroke="#ffffff" points="368,-20 368,-111 448,-111 448,-20 368,-20"/>
<text text-anchor="start" x="394.5" y="-92.6" font-family="Times,serif" font-size="18.00" fill="#ff0000">#4</text>
</g>
<!-- node0 -->
<g id="node1" class="node">
<title>node0</title>
<polygon fill="none" stroke="#000000" points="16,-33 16,-69 70,-69 70,-33 16,-33"/>
<text text-anchor="start" x="34" y="-48.3" font-family="Times,serif" font-size="14.00" fill="#000000">S</text>
<text text-anchor="start" x="44" y="-48.3" font-family="Times,serif" baseline-shift="sub" font-size="14.00" fill="#000000">0</text>
</g>
<!-- node1 -->
<g id="node2" class="node">
<title>node1</title>
<polygon fill="none" stroke="#000000" points="106,-28 106,-74 160,-74 160,-28 106,-28"/>
<text text-anchor="start" x="125" y="-58.8" font-family="Times,serif" font-size="14.00" fill="#000000">&#39;a&#39;</text>
<polyline fill="none" stroke="#000000" points="106,-51 160,-51 "/>
<text text-anchor="start" x="124" y="-36.8" font-family="Times,serif" font-size="14.00" fill="#000000">S</text>
<text text-anchor="start" x="134" y="-36.8" font-family="Times,serif" baseline-shift="sub" font-size="14.00" fill="#000000">0</text>
</g>
<!-- node0&#45;&gt;node1 -->
<g id="edge1" class="edge">
<title>node0&#45;&gt;node1</title>
<path fill="none" stroke="#000000" d="M70.003,-51C78.0277,-51 86.9665,-51 95.5309,-51"/>
<polygon fill="#000000" stroke="#000000" points="95.7051,-54.5001 105.705,-51 95.705,-47.5001 95.7051,-54.5001"/>
</g>
<!-- node2 -->
<g id="node3" class="node">
<title>node2</title>
<polygon fill="none" stroke="#000000" points="196,-28 196,-74 250,-74 250,-28 196,-28"/>
<text text-anchor="start" x="209.5" y="-58.8" font-family="Times,serif" font-size="14.00" fill="#000000">[&#39;a&#39;]</text>
<polyline fill="none" stroke="#000000" points="196,-51 250,-51 "/>
<text text-anchor="start" x="214" y="-36.8" font-family="Times,serif" font-size="14.00" fill="#000000">S</text>
<text text-anchor="start" x="224" y="-36.8" font-family="Times,serif" baseline-shift="sub" font-size="14.00" fill="#000000">0</text>
</g>
<!-- node1&#45;&gt;node2 -->
<g id="edge2" class="edge">
<title>node1&#45;&gt;node2</title>
<path fill="none" stroke="#000000" d="M160.003,-51C168.0277,-51 176.9665,-51 185.5309,-51"/>
<polygon fill="#000000" stroke="#000000" points="185.7051,-54.5001 195.705,-51 185.705,-47.5001 185.7051,-54.5001"/>
</g>
<!-- node3 -->
<g id="node4" class="node">
<title>node3</title>
<polygon fill="none" stroke="#000000" points="286,-16.5 286,-85.5 340,-85.5 340,-16.5 286,-16.5"/>
<text text-anchor="start" x="308" y="-70.3" font-family="Times,serif" font-size="14.00" fill="#000000">b</text>
<polyline fill="none" stroke="#000000" points="286,-62.5 340,-62.5 "/>
<text text-anchor="start" x="299.5" y="-47.3" font-family="Times,serif" font-size="14.00" fill="#000000">[&#39;a&#39;]</text>
<polyline fill="none" stroke="#000000" points="286,-39.5 340,-39.5 "/>
<text text-anchor="start" x="304" y="-25.3" font-family="Times,serif" font-size="14.00" fill="#000000">S</text>
<text text-anchor="start" x="314" y="-25.3" font-family="Times,serif" baseline-shift="sub" font-size="14.00" fill="#000000">0</text>
</g>
<!-- node2&#45;&gt;node3 -->
<g id="edge3" class="edge">
<title>node2&#45;&gt;node3</title>
<path fill="none" stroke="#000000" d="M250.003,-51C258.0277,-51 266.9665,-51 275.5309,-51"/>
<polygon fill="#000000" stroke="#000000" points="275.7051,-54.5001 285.705,-51 275.705,-47.5001 275.7051,-54.5001"/>
</g>
<!-- node4 -->
<g id="node5" class="node">
<title>node4</title>
<polygon fill="none" stroke="#000000" points="376,-28 376,-74 440,-74 440,-28 376,-28"/>
<text text-anchor="start" x="384" y="-58.8" font-family="Times,serif" font-size="14.00" fill="#000000">[&#39;a&#39;].&#39;b&#39;</text>
<polyline fill="none" stroke="#000000" points="376,-51 440,-51 "/>
<text text-anchor="start" x="399" y="-36.8" font-family="Times,serif" font-size="14.00" fill="#000000">S</text>
<text text-anchor="start" x="409" y="-36.8" font-family="Times,serif" baseline-shift="sub" font-size="14.00" fill="#000000">0</text>
</g>
<!-- node3&#45;&gt;node4 -->
<g id="edge4" class="edge">
<title>node3&#45;&gt;node4</title>
<path fill="none" stroke="#000000" d="M340.2232,-51C348.0971,-51 356.8862,-51 365.4575,-51"/>
<polygon fill="#000000" stroke="#000000" points="365.7286,-54.5001 375.7286,-51 365.7286,-47.5001 365.7286,-54.5001"/>
</g>
<!-- node5 -->
<g id="node6" class="node">
<title>node5</title>
<text text-anchor="start" x="489.5" y="-46.6" font-family="Times,serif" font-size="18.00" fill="#ff0000">#1</text>
</g>
<!-- node4&#45;&gt;node5 -->
<g id="edge5" class="edge">
<title>node4&#45;&gt;node5</title>
<path fill="none" stroke="#000000" d="M440.1627,-51C448.4287,-51 457.3889,-51 465.8834,-51"/>
<polygon fill="#000000" stroke="#000000" points="465.9357,-54.5001 475.9357,-51 465.9357,-47.5001 465.9357,-54.5001"/>
</g>
</g>
</svg>
