<?xml version="1.0" encoding="UTF-8" standalone="no"?>
<!DOCTYPE svg PUBLIC "-//W3C//DTD SVG 1.1//EN"
 "http://www.w3.org/Graphics/SVG/1.1/DTD/svg11.dtd">
<!-- Generated by graphviz version 2.40.1 (20161225.0304)
 -->
<!-- Title: G Pages: 1 -->
<svg width="240pt" height="123pt"
 viewBox="0.00 0.00 240.00 123.00" xmlns="http://www.w3.org/2000/svg" xmlns:xlink="http://www.w3.org/1999/xlink">
<g id="graph0" class="graph" transform="scale(1 1) rotate(0) translate(4 119)">
<title>G</title>
<polygon fill="#ffffff" stroke="transparent" points="-4,4 -4,-119 236,-119 236,4 -4,4"/>
<!-- node0 -->
<g id="node1" class="node">
<title>node0</title>
<polygon fill="none" stroke="#000000" points="0,-22.5 0,-114.5 54,-114.5 54,-22.5 0,-22.5"/>
<text text-anchor="middle" x="27" y="-99.3" font-family="Times,serif" font-size="14.00" fill="#000000">...</text>
<polyline fill="none" stroke="#000000" points="0,-91.5 54,-91.5 "/>
<text text-anchor="middle" x="27" y="-76.3" font-family="Times,serif" font-size="14.00" fill="#000000">...</text>
<polyline fill="none" stroke="#000000" points="0,-68.5 54,-68.5 "/>
<text text-anchor="middle" x="27" y="-53.3" font-family="Times,serif" font-size="14.00" fill="#000000">#5</text>
<polyline fill="none" stroke="#000000" points="0,-45.5 54,-45.5 "/>
<text text-anchor="middle" x="27" y="-30.3" font-family="Times,serif" font-size="14.00" fill="#000000">#2</text>
</g>
<!-- node1 -->
<g id="node2" class="node">
<title>node1</title>
<polygon fill="none" stroke="#000000" points="90,-15.5 90,-51.5 232,-51.5 232,-15.5 90,-15.5"/>
<text text-anchor="middle" x="128.5" y="-29.8" font-family="Times,serif" font-size="14.00" fill="#000000">IDNTER</text>
<polyline fill="none" stroke="#000000" points="167,-15.5 167,-51.5 "/>
<text text-anchor="middle" x="180" y="-29.8" font-family="Times,serif" font-size="14.00" fill="#000000">2</text>
<polyline fill="none" stroke="#000000" points="193,-15.5 193,-51.5 "/>
<text text-anchor="middle" x="212.5" y="-29.8" font-family="Times,serif" font-size="14.00" fill="#000000">NT</text>
<text text-anchor="start" x="72" y="-4.8" font-family="Times,serif" font-size="14.00" fill="#000000">S</text>
<text text-anchor="start" x="82" y="-4.8" font-family="Times,serif" baseline-shift="sub" font-size="14.00" fill="#000000">0</text>
</g>
<!-- node0&#45;&gt;node1 -->
<g id="edge1" class="edge">
<title>node0:f0&#45;&gt;node1</title>
<path fill="none" stroke="#000000" d="M54,-33.5C62.3449,-33.5 71.0558,-33.5 79.7474,-33.5"/>
<polygon fill="#000000" stroke="#000000" points="79.9186,-37.0001 89.9186,-33.5 79.9186,-30.0001 79.9186,-37.0001"/>
</g>
</g>
</svg>
