<?xml version="1.0" encoding="UTF-8" standalone="no"?>
<!DOCTYPE svg PUBLIC "-//W3C//DTD SVG 1.1//EN"
 "http://www.w3.org/Graphics/SVG/1.1/DTD/svg11.dtd">
<!-- Generated by graphviz version 2.40.1 (20161225.0304)
 -->
<!-- Title: G Pages: 1 -->
<svg width="1164pt" height="524pt"
 viewBox="0.00 0.00 1164.00 524.00" xmlns="http://www.w3.org/2000/svg" xmlns:xlink="http://www.w3.org/1999/xlink">
<g id="graph0" class="graph" transform="scale(1 1) rotate(0) translate(4 520)">
<title>G</title>
<polygon fill="#ffffff" stroke="transparent" points="-4,4 -4,-520 1160,-520 1160,4 -4,4"/>
<g id="clust1" class="cluster">
<title>clusterA</title>
<polygon fill="none" stroke="#000000" points="239,-456 239,-508 507,-508 507,-456 239,-456"/>
</g>
<g id="clust2" class="cluster">
<title>clusterS</title>
<polygon fill="none" stroke="#000000" points="8,-8 8,-434 176,-434 176,-8 8,-8"/>
</g>
<g id="clust8" class="cluster">
<title>clusterN</title>
<polygon fill="none" stroke="#000000" points="184,-380 184,-436 288,-436 288,-380 184,-380"/>
</g>
<g id="clust9" class="cluster">
<title>clusterE</title>
<polygon fill="none" stroke="#000000" points="296,-156 296,-434 464,-434 464,-156 296,-156"/>
</g>
<g id="clust13" class="cluster">
<title>clusterT</title>
<polygon fill="none" stroke="#000000" points="472,-156 472,-434 640,-434 640,-156 472,-156"/>
</g>
<g id="clust17" class="cluster">
<title>clusterf</title>
<polygon fill="none" stroke="#000000" points="648,-8 648,-434 1148,-434 1148,-8 648,-8"/>
</g>
<!-- A -->
<g id="node1" class="node">
<title>A</title>
<polygon fill="none" stroke="#000000" points="202,-500 175,-482 202,-464 229,-482 202,-500"/>
<polyline fill="none" stroke="#000000" points="184,-488 184,-476 "/>
<polyline fill="none" stroke="#000000" points="193,-470 211,-470 "/>
<polyline fill="none" stroke="#000000" points="220,-476 220,-488 "/>
<polyline fill="none" stroke="#000000" points="211,-494 193,-494 "/>
<text text-anchor="middle" x="202" y="-478.3" font-family="Times,serif" font-size="14.00" fill="#000000">A</text>
</g>
<!-- S -->
<g id="node2" class="node">
<title>S</title>
<polygon fill="none" stroke="#000000" points="283,-500 247,-500 247,-464 283,-464 283,-500"/>
<text text-anchor="middle" x="265" y="-478.3" font-family="Times,serif" font-size="14.00" fill="#000000">S</text>
</g>
<!-- ls1 -->
<g id="node7" class="node">
<title>ls1</title>
<text text-anchor="middle" x="141" y="-404.3" font-family="Times,serif" font-size="14.00" fill="#000000">.</text>
</g>
<!-- S&#45;&gt;ls1 -->
<g id="edge40" class="edge">
<title>S&#45;&gt;ls1</title>
<path fill="none" stroke="#000000" d="M248.5119,-463.9989C245.2321,-461.0566 241.6631,-458.2423 238,-456 214.7439,-441.7641 204.2191,-448.5277 180,-436 177.432,-434.6716 174.8438,-433.1892 172.2882,-431.6188"/>
<polygon fill="#000000" stroke="#000000" points="174.079,-428.6075 163.8008,-426.0369 170.2326,-434.456 174.079,-428.6075"/>
</g>
<!-- N -->
<g id="node3" class="node">
<title>N</title>
<polygon fill="none" stroke="#000000" points="337,-500 301,-500 301,-464 337,-464 337,-500"/>
<text text-anchor="middle" x="319" y="-478.3" font-family="Times,serif" font-size="14.00" fill="#000000">N</text>
</g>
<!-- ln -->
<g id="node17" class="node">
<title>ln</title>
<text text-anchor="start" x="199.5" y="-413.8" font-family="Times,serif" font-size="14.00" fill="#000000"> &#39;IDNTER&#39;</text>
<text text-anchor="start" x="204" y="-396.6" font-family="Times,serif" font-size="14.00" fill="#000000"> &#160;&#160;&#160;&#160;&#160;&#160;&#160;</text>
<text text-anchor="start" x="241" y="-396.6" font-family="Times,serif" font-size="18.00" fill="#ff0000">#2</text>
</g>
<!-- N&#45;&gt;ln -->
<g id="edge41" class="edge">
<title>N&#45;&gt;ln</title>
<path fill="none" stroke="#000000" d="M300.8359,-464.2327C297.908,-461.4489 294.8897,-458.6258 292,-456 284.2526,-448.9603 275.7427,-441.5218 267.7472,-434.6571"/>
<polygon fill="#000000" stroke="#000000" points="269.849,-431.8495 259.9705,-428.0197 265.3046,-437.1739 269.849,-431.8495"/>
</g>
<!-- E -->
<g id="node4" class="node">
<title>E</title>
<polygon fill="none" stroke="#000000" points="391,-500 355,-500 355,-464 391,-464 391,-500"/>
<text text-anchor="middle" x="373" y="-478.3" font-family="Times,serif" font-size="14.00" fill="#000000">E</text>
</g>
<!-- le1 -->
<g id="node18" class="node">
<title>le1</title>
<text text-anchor="middle" x="373" y="-404.3" font-family="Times,serif" font-size="14.00" fill="#000000">.</text>
</g>
<!-- E&#45;&gt;le1 -->
<g id="edge42" class="edge">
<title>E&#45;&gt;le1</title>
<path fill="none" stroke="#000000" d="M373,-463.7079C373,-455.4635 373,-445.5376 373,-436.3622"/>
<polygon fill="#000000" stroke="#000000" points="376.5001,-436.0817 373,-426.0817 369.5001,-436.0818 376.5001,-436.0817"/>
</g>
<!-- T -->
<g id="node5" class="node">
<title>T</title>
<polygon fill="none" stroke="#000000" points="445,-500 409,-500 409,-464 445,-464 445,-500"/>
<text text-anchor="middle" x="427" y="-478.3" font-family="Times,serif" font-size="14.00" fill="#000000">T</text>
</g>
<!-- lt1 -->
<g id="node24" class="node">
<title>lt1</title>
<text text-anchor="middle" x="507" y="-404.3" font-family="Times,serif" font-size="14.00" fill="#000000">.</text>
</g>
<!-- T&#45;&gt;lt1 -->
<g id="edge43" class="edge">
<title>T&#45;&gt;lt1</title>
<path fill="none" stroke="#000000" d="M445.2276,-464.3017C448.1473,-461.509 451.1464,-458.665 454,-456 462.1131,-448.4232 471.025,-440.2829 479.1878,-432.8974"/>
<polygon fill="#000000" stroke="#000000" points="481.6527,-435.3875 486.7339,-426.0906 476.9641,-430.1897 481.6527,-435.3875"/>
</g>
<!-- F -->
<g id="node6" class="node">
<title>F</title>
<polygon fill="none" stroke="#000000" points="499,-500 463,-500 463,-464 499,-464 499,-500"/>
<text text-anchor="middle" x="481" y="-478.3" font-family="Times,serif" font-size="14.00" fill="#000000">F</text>
</g>
<!-- lf1 -->
<g id="node30" class="node">
<title>lf1</title>
<text text-anchor="middle" x="835" y="-404.3" font-family="Times,serif" font-size="14.00" fill="#000000">+</text>
</g>
<!-- F&#45;&gt;lf1 -->
<g id="edge44" class="edge">
<title>F&#45;&gt;lf1</title>
<path fill="none" stroke="#000000" d="M499.0416,-478.2286C554.4154,-466.6533 722.7321,-431.4684 797.9728,-415.7401"/>
<polygon fill="#000000" stroke="#000000" points="798.8782,-419.1266 807.9504,-413.6544 797.4458,-412.2747 798.8782,-419.1266"/>
</g>
<!-- ls21 -->
<g id="node8" class="node">
<title>ls21</title>
<text text-anchor="middle" x="69" y="-330.3" font-family="Times,serif" font-size="14.00" fill="#000000">*</text>
</g>
<!-- ls1&#45;&gt;ls21 -->
<g id="edge1" class="edge">
<title>ls1&#45;&gt;ls21</title>
<path fill="none" stroke="#000000" d="M123.2022,-389.7079C112.0419,-378.2375 97.7143,-363.512 86.593,-352.0817"/>
</g>
<!-- ls22 -->
<g id="node9" class="node">
<title>ls22</title>
<text text-anchor="middle" x="141" y="-330.3" font-family="Times,serif" font-size="14.00" fill="#000000">;</text>
</g>
<!-- ls1&#45;&gt;ls22 -->
<g id="edge2" class="edge">
<title>ls1&#45;&gt;ls22</title>
<path fill="none" stroke="#000000" d="M141,-389.7079C141,-378.2375 141,-363.512 141,-352.0817"/>
</g>
<!-- ls31 -->
<g id="node10" class="node">
<title>ls31</title>
<text text-anchor="middle" x="69" y="-256.3" font-family="Times,serif" font-size="14.00" fill="#000000">.</text>
</g>
<!-- ls21&#45;&gt;ls31 -->
<g id="edge3" class="edge">
<title>ls21&#45;&gt;ls31</title>
<path fill="none" stroke="#000000" d="M69,-315.7079C69,-304.2375 69,-289.512 69,-278.0817"/>
</g>
<!-- ls41 -->
<g id="node11" class="node">
<title>ls41</title>
<text text-anchor="middle" x="43" y="-180.3" font-family="Times,serif" font-size="14.00" fill="#000000">.</text>
</g>
<!-- ls31&#45;&gt;ls41 -->
<g id="edge4" class="edge">
<title>ls31&#45;&gt;ls41</title>
<path fill="none" stroke="#000000" d="M62.8384,-241.9891C58.7238,-229.9618 53.3315,-214.1999 49.2075,-202.145"/>
</g>
<!-- ls42 -->
<g id="node12" class="node">
<title>ls42</title>
<text text-anchor="start" x="123" y="-189.8" font-family="Times,serif" font-size="14.00" fill="#000000"> ,</text>
<text text-anchor="start" x="96" y="-172.6" font-family="Times,serif" font-size="14.00" fill="#000000"> &#160;&#160;&#160;&#160;&#160;&#160;&#160;</text>
<text text-anchor="start" x="133" y="-172.6" font-family="Times,serif" font-size="18.00" fill="#ff0000">#1</text>
</g>
<!-- ls31&#45;&gt;ls42 -->
<g id="edge5" class="edge">
<title>ls31&#45;&gt;ls42</title>
<path fill="none" stroke="#000000" d="M82.9822,-241.9891C91.842,-230.5764 103.3125,-215.8008 112.4575,-204.0209"/>
</g>
<!-- ls51 -->
<g id="node13" class="node">
<title>ls51</title>
<text text-anchor="middle" x="43" y="-104.3" font-family="Times,serif" font-size="14.00" fill="#000000">.</text>
</g>
<!-- ls41&#45;&gt;ls51 -->
<g id="edge6" class="edge">
<title>ls41&#45;&gt;ls51</title>
<path fill="none" stroke="#000000" d="M43,-165.9891C43,-153.9618 43,-138.1999 43,-126.145"/>
</g>
<!-- ls52 -->
<g id="node14" class="node">
<title>ls52</title>
<text text-anchor="middle" x="115" y="-104.3" font-family="Times,serif" font-size="14.00" fill="#000000">E</text>
</g>
<!-- ls41&#45;&gt;ls52 -->
<g id="edge7" class="edge">
<title>ls41&#45;&gt;ls52</title>
<path fill="none" stroke="#000000" d="M60.063,-165.9891C71.4572,-153.9618 86.3896,-138.1999 97.81,-126.145"/>
</g>
<!-- ls61 -->
<g id="node15" class="node">
<title>ls61</title>
<text text-anchor="middle" x="43" y="-30.3" font-family="Times,serif" font-size="14.00" fill="#000000">N</text>
</g>
<!-- ls51&#45;&gt;ls61 -->
<g id="edge8" class="edge">
<title>ls51&#45;&gt;ls61</title>
<path fill="none" stroke="#000000" d="M43,-89.7079C43,-78.2375 43,-63.512 43,-52.0817"/>
</g>
<!-- ls62 -->
<g id="node16" class="node">
<title>ls62</title>
<text text-anchor="middle" x="115" y="-30.3" font-family="Times,serif" font-size="14.00" fill="#000000">&#39;&#45;&gt;&#39;</text>
</g>
<!-- ls51&#45;&gt;ls62 -->
<g id="edge9" class="edge">
<title>ls51&#45;&gt;ls62</title>
<path fill="none" stroke="#000000" d="M60.7978,-89.7079C71.9581,-78.2375 86.2857,-63.512 97.407,-52.0817"/>
</g>
<!-- le21 -->
<g id="node19" class="node">
<title>le21</title>
<text text-anchor="middle" x="337" y="-330.3" font-family="Times,serif" font-size="14.00" fill="#000000">T</text>
</g>
<!-- le1&#45;&gt;le21 -->
<g id="edge10" class="edge">
<title>le1&#45;&gt;le21</title>
<path fill="none" stroke="#000000" d="M364.1011,-389.7079C358.5209,-378.2375 351.3572,-363.512 345.7965,-352.0817"/>
</g>
<!-- le22 -->
<g id="node20" class="node">
<title>le22</title>
<text text-anchor="middle" x="409" y="-330.3" font-family="Times,serif" font-size="14.00" fill="#000000">*</text>
</g>
<!-- le1&#45;&gt;le22 -->
<g id="edge11" class="edge">
<title>le1&#45;&gt;le22</title>
<path fill="none" stroke="#000000" d="M381.8989,-389.7079C387.4791,-378.2375 394.6428,-363.512 400.2035,-352.0817"/>
</g>
<!-- le31 -->
<g id="node21" class="node">
<title>le31</title>
<text text-anchor="middle" x="409" y="-256.3" font-family="Times,serif" font-size="14.00" fill="#000000">.</text>
</g>
<!-- le22&#45;&gt;le31 -->
<g id="edge12" class="edge">
<title>le22&#45;&gt;le31</title>
<path fill="none" stroke="#000000" d="M409,-315.7079C409,-304.2375 409,-289.512 409,-278.0817"/>
</g>
<!-- le41 -->
<g id="node22" class="node">
<title>le41</title>
<text text-anchor="middle" x="331" y="-180.3" font-family="Times,serif" font-size="14.00" fill="#000000">&#39;+&#39;</text>
</g>
<!-- le31&#45;&gt;le41 -->
<g id="edge13" class="edge">
<title>le31&#45;&gt;le41</title>
<path fill="none" stroke="#000000" d="M390.5151,-241.9891C378.1714,-229.9618 361.9946,-214.1999 349.6225,-202.145"/>
</g>
<!-- le42 -->
<g id="node23" class="node">
<title>le42</title>
<text text-anchor="start" x="406.5" y="-189.8" font-family="Times,serif" font-size="14.00" fill="#000000"> T </text>
<text text-anchor="start" x="384" y="-172.6" font-family="Times,serif" font-size="14.00" fill="#000000"> &#160;&#160;&#160;&#160;&#160;&#160;&#160;</text>
<text text-anchor="start" x="421" y="-172.6" font-family="Times,serif" font-size="18.00" fill="#ff0000">#3</text>
</g>
<!-- le31&#45;&gt;le42 -->
<g id="edge14" class="edge">
<title>le31&#45;&gt;le42</title>
<path fill="none" stroke="#000000" d="M410.6589,-241.9891C411.7101,-230.5764 413.071,-215.8008 414.156,-204.0209"/>
</g>
<!-- lt21 -->
<g id="node25" class="node">
<title>lt21</title>
<text text-anchor="middle" x="507" y="-330.3" font-family="Times,serif" font-size="14.00" fill="#000000">F</text>
</g>
<!-- lt1&#45;&gt;lt21 -->
<g id="edge15" class="edge">
<title>lt1&#45;&gt;lt21</title>
<path fill="none" stroke="#000000" d="M507,-389.7079C507,-378.2375 507,-363.512 507,-352.0817"/>
</g>
<!-- lt22 -->
<g id="node26" class="node">
<title>lt22</title>
<text text-anchor="middle" x="579" y="-330.3" font-family="Times,serif" font-size="14.00" fill="#000000">*</text>
</g>
<!-- lt1&#45;&gt;lt22 -->
<g id="edge16" class="edge">
<title>lt1&#45;&gt;lt22</title>
<path fill="none" stroke="#000000" d="M524.7978,-389.7079C535.9581,-378.2375 550.2857,-363.512 561.407,-352.0817"/>
</g>
<!-- lt31 -->
<g id="node27" class="node">
<title>lt31</title>
<text text-anchor="middle" x="579" y="-256.3" font-family="Times,serif" font-size="14.00" fill="#000000">.</text>
</g>
<!-- lt22&#45;&gt;lt31 -->
<g id="edge17" class="edge">
<title>lt22&#45;&gt;lt31</title>
<path fill="none" stroke="#000000" d="M579,-315.7079C579,-304.2375 579,-289.512 579,-278.0817"/>
</g>
<!-- lt41 -->
<g id="node28" class="node">
<title>lt41</title>
<text text-anchor="middle" x="507" y="-180.3" font-family="Times,serif" font-size="14.00" fill="#000000">&#39;.&#39;</text>
</g>
<!-- lt31&#45;&gt;lt41 -->
<g id="edge18" class="edge">
<title>lt31&#45;&gt;lt41</title>
<path fill="none" stroke="#000000" d="M561.937,-241.9891C550.5428,-229.9618 535.6104,-214.1999 524.19,-202.145"/>
</g>
<!-- lt42 -->
<g id="node29" class="node">
<title>lt42</title>
<text text-anchor="start" x="582.5" y="-189.8" font-family="Times,serif" font-size="14.00" fill="#000000"> F </text>
<text text-anchor="start" x="560" y="-172.6" font-family="Times,serif" font-size="14.00" fill="#000000"> &#160;&#160;&#160;&#160;&#160;&#160;&#160;</text>
<text text-anchor="start" x="597" y="-172.6" font-family="Times,serif" font-size="18.00" fill="#ff0000">#4</text>
</g>
<!-- lt31&#45;&gt;lt42 -->
<g id="edge19" class="edge">
<title>lt31&#45;&gt;lt42</title>
<path fill="none" stroke="#000000" d="M582.0808,-241.9891C584.033,-230.5764 586.5604,-215.8008 588.5754,-204.0209"/>
</g>
<!-- lf21 -->
<g id="node31" class="node">
<title>lf21</title>
<text text-anchor="middle" x="835" y="-330.3" font-family="Times,serif" font-size="14.00" fill="#000000">+</text>
</g>
<!-- lf1&#45;&gt;lf21 -->
<g id="edge20" class="edge">
<title>lf1&#45;&gt;lf21</title>
<path fill="none" stroke="#000000" d="M835,-389.7079C835,-378.2375 835,-363.512 835,-352.0817"/>
</g>
<!-- lf22 -->
<g id="node32" class="node">
<title>lf22</title>
<text text-anchor="middle" x="1015" y="-330.3" font-family="Times,serif" font-size="14.00" fill="#000000">.</text>
</g>
<!-- lf1&#45;&gt;lf22 -->
<g id="edge21" class="edge">
<title>lf1&#45;&gt;lf22</title>
<path fill="none" stroke="#000000" d="M862.3381,-396.761C896.3667,-382.7715 954.1212,-359.0279 987.9944,-345.1023"/>
</g>
<!-- lf31 -->
<g id="node33" class="node">
<title>lf31</title>
<text text-anchor="middle" x="799" y="-256.3" font-family="Times,serif" font-size="14.00" fill="#000000">+</text>
</g>
<!-- lf21&#45;&gt;lf31 -->
<g id="edge22" class="edge">
<title>lf21&#45;&gt;lf31</title>
<path fill="none" stroke="#000000" d="M826.1011,-315.7079C820.5209,-304.2375 813.3572,-289.512 807.7965,-278.0817"/>
</g>
<!-- lf32 -->
<g id="node34" class="node">
<title>lf32</title>
<text text-anchor="middle" x="871" y="-256.3" font-family="Times,serif" font-size="14.00" fill="#000000">.</text>
</g>
<!-- lf21&#45;&gt;lf32 -->
<g id="edge23" class="edge">
<title>lf21&#45;&gt;lf32</title>
<path fill="none" stroke="#000000" d="M843.8989,-315.7079C849.4791,-304.2375 856.6428,-289.512 862.2035,-278.0817"/>
</g>
<!-- lf33 -->
<g id="node35" class="node">
<title>lf33</title>
<text text-anchor="middle" x="1015" y="-256.3" font-family="Times,serif" font-size="14.00" fill="#000000">.</text>
</g>
<!-- lf22&#45;&gt;lf33 -->
<g id="edge24" class="edge">
<title>lf22&#45;&gt;lf33</title>
<path fill="none" stroke="#000000" d="M1015,-315.7079C1015,-304.2375 1015,-289.512 1015,-278.0817"/>
</g>
<!-- lf34 -->
<g id="node36" class="node">
<title>lf34</title>
<text text-anchor="start" x="1086.5" y="-265.8" font-family="Times,serif" font-size="14.00" fill="#000000"> &#39;/)&#39; </text>
<text text-anchor="start" x="1068" y="-248.6" font-family="Times,serif" font-size="14.00" fill="#000000"> &#160;&#160;&#160;&#160;&#160;&#160;&#160;</text>
<text text-anchor="start" x="1105" y="-248.6" font-family="Times,serif" font-size="18.00" fill="#ff0000">#7</text>
</g>
<!-- lf22&#45;&gt;lf34 -->
<g id="edge25" class="edge">
<title>lf22&#45;&gt;lf34</title>
<path fill="none" stroke="#000000" d="M1036.0112,-315.7079C1048.4001,-304.9223 1064.0948,-291.2586 1076.8401,-280.1628"/>
</g>
<!-- lf41 -->
<g id="node37" class="node">
<title>lf41</title>
<text text-anchor="middle" x="727" y="-180.3" font-family="Times,serif" font-size="14.00" fill="#000000">+</text>
</g>
<!-- lf31&#45;&gt;lf41 -->
<g id="edge26" class="edge">
<title>lf31&#45;&gt;lf41</title>
<path fill="none" stroke="#000000" d="M781.937,-241.9891C770.5428,-229.9618 755.6104,-214.1999 744.19,-202.145"/>
</g>
<!-- lf42 -->
<g id="node38" class="node">
<title>lf42</title>
<text text-anchor="middle" x="799" y="-180.3" font-family="Times,serif" font-size="14.00" fill="#000000">.</text>
</g>
<!-- lf31&#45;&gt;lf42 -->
<g id="edge27" class="edge">
<title>lf31&#45;&gt;lf42</title>
<path fill="none" stroke="#000000" d="M799,-241.9891C799,-229.9618 799,-214.1999 799,-202.145"/>
</g>
<!-- lf44 -->
<g id="node39" class="node">
<title>lf44</title>
<text text-anchor="middle" x="871" y="-180.3" font-family="Times,serif" font-size="14.00" fill="#000000">.</text>
</g>
<!-- lf32&#45;&gt;lf44 -->
<g id="edge28" class="edge">
<title>lf32&#45;&gt;lf44</title>
<path fill="none" stroke="#000000" d="M871,-241.9891C871,-229.9618 871,-214.1999 871,-202.145"/>
</g>
<!-- lf43 -->
<g id="node40" class="node">
<title>lf43</title>
<text text-anchor="start" x="945" y="-189.8" font-family="Times,serif" font-size="14.00" fill="#000000"> &#39;]&#39; </text>
<text text-anchor="start" x="924" y="-172.6" font-family="Times,serif" font-size="14.00" fill="#000000"> &#160;&#160;&#160;&#160;&#160;&#160;&#160;</text>
<text text-anchor="start" x="961" y="-172.6" font-family="Times,serif" font-size="18.00" fill="#ff0000">#6</text>
</g>
<!-- lf32&#45;&gt;lf43 -->
<g id="edge29" class="edge">
<title>lf32&#45;&gt;lf43</title>
<path fill="none" stroke="#000000" d="M891.1438,-241.9891C903.908,-230.5764 920.4333,-215.8008 933.6082,-204.0209"/>
</g>
<!-- lf45 -->
<g id="node41" class="node">
<title>lf45</title>
<text text-anchor="middle" x="1041" y="-180.3" font-family="Times,serif" font-size="14.00" fill="#000000">&#39;(/&#39;</text>
</g>
<!-- lf33&#45;&gt;lf45 -->
<g id="edge30" class="edge">
<title>lf33&#45;&gt;lf45</title>
<path fill="none" stroke="#000000" d="M1021.1616,-241.9891C1025.2762,-229.9618 1030.6685,-214.1999 1034.7925,-202.145"/>
</g>
<!-- lf56 -->
<g id="node47" class="node">
<title>lf56</title>
<text text-anchor="middle" x="1113" y="-180.3" font-family="Times,serif" font-size="14.00" fill="#000000">E</text>
</g>
<!-- lf33&#45;&gt;lf56 -->
<g id="edge31" class="edge">
<title>lf33&#45;&gt;lf56</title>
<path fill="none" stroke="#000000" d="M1038.2246,-241.9891C1053.7334,-229.9618 1074.058,-214.1999 1089.6025,-202.145"/>
</g>
<!-- lf51 -->
<g id="node42" class="node">
<title>lf51</title>
<text text-anchor="start" x="664" y="-113.8" font-family="Times,serif" font-size="14.00" fill="#000000"> &#39;IDNTER&#39; </text>
<text text-anchor="start" x="671" y="-96.6" font-family="Times,serif" font-size="14.00" fill="#000000"> &#160;&#160;&#160;&#160;&#160;&#160;&#160;</text>
<text text-anchor="start" x="708" y="-96.6" font-family="Times,serif" font-size="18.00" fill="#ff0000">#5</text>
</g>
<!-- lf41&#45;&gt;lf51 -->
<g id="edge32" class="edge">
<title>lf41&#45;&gt;lf51</title>
<path fill="none" stroke="#000000" d="M721.3123,-165.9891C717.7083,-154.5764 713.0424,-139.8008 709.3224,-128.0209"/>
</g>
<!-- lf52 -->
<g id="node43" class="node">
<title>lf52</title>
<text text-anchor="start" x="776.5" y="-113.8" font-family="Times,serif" font-size="14.00" fill="#000000"> &#39;ELTER&#39; </text>
<text text-anchor="start" x="778" y="-96.6" font-family="Times,serif" font-size="14.00" fill="#000000"> &#160;&#160;&#160;&#160;&#160;&#160;&#160;</text>
<text text-anchor="start" x="815" y="-96.6" font-family="Times,serif" font-size="18.00" fill="#ff0000">#5</text>
</g>
<!-- lf41&#45;&gt;lf52 -->
<g id="edge33" class="edge">
<title>lf41&#45;&gt;lf52</title>
<path fill="none" stroke="#000000" d="M746.6698,-165.9891C759.1337,-154.5764 775.2701,-139.8008 788.1351,-128.0209"/>
</g>
<!-- lf53 -->
<g id="node44" class="node">
<title>lf53</title>
<text text-anchor="middle" x="897" y="-104.3" font-family="Times,serif" font-size="14.00" fill="#000000">.</text>
</g>
<!-- lf42&#45;&gt;lf53 -->
<g id="edge34" class="edge">
<title>lf42&#45;&gt;lf53</title>
<path fill="none" stroke="#000000" d="M822.2327,-165.9179C826.4788,-162.6166 830.8714,-159.2037 835,-156 847.6904,-146.1525 861.8545,-135.1849 873.4376,-126.222"/>
</g>
<!-- lf54 -->
<g id="node45" class="node">
<title>lf54</title>
<text text-anchor="middle" x="969" y="-104.3" font-family="Times,serif" font-size="14.00" fill="#000000">&#39;)&#39;</text>
</g>
<!-- lf42&#45;&gt;lf54 -->
<g id="edge35" class="edge">
<title>lf42&#45;&gt;lf54</title>
<path fill="none" stroke="#000000" d="M819.4067,-165.9775C824.2812,-162.2977 829.634,-158.7235 835,-156 875.3934,-135.4982 891.1497,-145.335 933,-128 935.9064,-126.7961 938.8772,-125.4153 941.8045,-123.9538"/>
</g>
<!-- lf55 -->
<g id="node46" class="node">
<title>lf55</title>
<text text-anchor="middle" x="1041" y="-104.3" font-family="Times,serif" font-size="14.00" fill="#000000">&#39;[&#39;</text>
</g>
<!-- lf44&#45;&gt;lf55 -->
<g id="edge36" class="edge">
<title>lf44&#45;&gt;lf55</title>
<path fill="none" stroke="#000000" d="M891.4067,-165.9775C896.2812,-162.2977 901.634,-158.7235 907,-156 947.3934,-135.4982 963.1497,-145.335 1005,-128 1007.9064,-126.7961 1010.8772,-125.4153 1013.8045,-123.9538"/>
</g>
<!-- lf62 -->
<g id="node49" class="node">
<title>lf62</title>
<text text-anchor="middle" x="1113" y="-104.3" font-family="Times,serif" font-size="14.00" fill="#000000">E</text>
</g>
<!-- lf44&#45;&gt;lf62 -->
<g id="edge37" class="edge">
<title>lf44&#45;&gt;lf62</title>
<path fill="none" stroke="#000000" d="M890.803,-165.8022C895.7887,-162.0397 901.3412,-158.4739 907,-156 977.1617,-125.3267 1004.6874,-153.1873 1077,-128 1079.9708,-126.9652 1082.9839,-125.6953 1085.937,-124.3017"/>
</g>
<!-- lf61 -->
<g id="node48" class="node">
<title>lf61</title>
<text text-anchor="middle" x="861" y="-30.3" font-family="Times,serif" font-size="14.00" fill="#000000">&#39;(&#39;</text>
</g>
<!-- lf53&#45;&gt;lf61 -->
<g id="edge38" class="edge">
<title>lf53&#45;&gt;lf61</title>
<path fill="none" stroke="#000000" d="M888.1011,-89.7079C882.5209,-78.2375 875.3572,-63.512 869.7965,-52.0817"/>
</g>
<!-- lf63 -->
<g id="node50" class="node">
<title>lf63</title>
<text text-anchor="middle" x="933" y="-30.3" font-family="Times,serif" font-size="14.00" fill="#000000">E</text>
</g>
<!-- lf53&#45;&gt;lf63 -->
<g id="edge39" class="edge">
<title>lf53&#45;&gt;lf63</title>
<path fill="none" stroke="#000000" d="M905.8989,-89.7079C911.4791,-78.2375 918.6428,-63.512 924.2035,-52.0817"/>
</g>
</g>
</svg>
